<svg xmlns="http://www.w3.org/2000/svg" xmlns:xlink="http://www.w3.org/1999/xlink" width="500" zoomAndPan="magnify" viewBox="0 0 375 374.999991" height="500" preserveAspectRatio="xMidYMid meet" version="1.0"><path fill="#fdd200" d="M 309.394531 52.417969 C 305.109375 48.992188 300.691406 45.75 296.132812 42.703125 C 291.574219 39.652344 286.890625 36.800781 282.089844 34.148438 C 277.289062 31.5 272.382812 29.054688 267.375 26.824219 C 262.363281 24.589844 257.269531 22.574219 252.085938 20.773438 C 246.90625 18.976562 241.65625 17.402344 236.339844 16.050781 C 231.023438 14.699219 225.660156 13.574219 220.25 12.679688 C 214.835938 11.785156 209.398438 11.121094 203.929688 10.691406 C 198.460938 10.261719 192.984375 10.0625 187.5 10.097656 C 86.03125 10.097656 3.777344 85.359375 3.777344 178.195312 C 3.777344 178.648438 3.777344 179.113281 3.789062 179.5625 C 3.777344 179.777344 3.777344 179.980469 3.777344 180.195312 C 3.789062 195.179688 6.097656 209.804688 10.703125 224.0625 C 10.792969 224.367188 10.894531 224.683594 10.996094 225 C 14.730469 236.648438 19.703125 247.738281 25.921875 258.269531 C 32.136719 268.804688 39.441406 278.519531 47.835938 287.414062 C 48.542969 290.539062 49.054688 293.695312 49.363281 296.882812 C 49.675781 300.070312 49.785156 303.265625 49.695312 306.46875 C 49.605469 309.671875 49.3125 312.855469 48.824219 316.019531 C 48.332031 319.183594 47.644531 322.304688 46.761719 325.386719 C 45.875 328.464844 44.804688 331.476562 43.542969 334.417969 C 42.277344 337.363281 40.835938 340.214844 39.214844 342.980469 C 37.59375 345.742188 35.808594 348.390625 33.851562 350.929688 C 31.898438 353.46875 29.792969 355.871094 27.535156 358.144531 C 27.257812 358.421875 27.027344 358.734375 26.84375 359.078125 C 26.660156 359.421875 26.527344 359.785156 26.453125 360.167969 C 26.375 360.554688 26.355469 360.941406 26.394531 361.328125 C 26.433594 361.71875 26.527344 362.09375 26.675781 362.457031 C 26.824219 362.816406 27.023438 363.148438 27.269531 363.453125 C 27.519531 363.753906 27.804688 364.015625 28.128906 364.230469 C 28.453125 364.449219 28.804688 364.613281 29.179688 364.730469 C 29.550781 364.84375 29.933594 364.902344 30.324219 364.902344 C 34.070312 364.886719 37.804688 364.695312 41.527344 364.324219 C 45.253906 363.953125 48.953125 363.410156 52.625 362.6875 C 56.296875 361.964844 59.929688 361.070312 63.515625 360.003906 C 67.105469 358.9375 70.632812 357.703125 74.105469 356.296875 C 77.574219 354.894531 80.972656 353.332031 84.292969 351.605469 C 87.613281 349.878906 90.847656 348 93.988281 345.964844 C 97.132812 343.933594 100.171875 341.753906 103.105469 339.429688 C 106.042969 337.109375 108.859375 334.652344 111.5625 332.0625 L 112.105469 331.542969 C 124.066406 336.445312 136.390625 340.140625 149.078125 342.625 C 161.765625 345.109375 174.570312 346.335938 187.5 346.304688 C 243.464844 346.304688 293.578125 323.40625 327.277344 287.292969 C 330.742188 283.652344 334.027344 279.863281 337.132812 275.914062 C 340.238281 271.964844 343.148438 267.878906 345.871094 263.65625 C 348.589844 259.433594 351.101562 255.089844 353.410156 250.628906 C 355.71875 246.167969 357.8125 241.609375 359.6875 236.949219 C 361.566406 232.289062 363.21875 227.550781 364.644531 222.738281 C 366.074219 217.921875 367.273438 213.050781 368.242188 208.121094 C 369.207031 203.191406 369.941406 198.226562 370.4375 193.230469 C 370.9375 188.230469 371.199219 183.21875 371.222656 178.195312 C 371.222656 128.152344 347.316406 83.210938 309.394531 52.417969 Z M 309.394531 52.417969 " fill-opacity="1" fill-rule="nonzero"/></svg>