<svg xmlns="http://www.w3.org/2000/svg" xmlns:xlink="http://www.w3.org/1999/xlink" width="500" zoomAndPan="magnify" viewBox="0 0 375 374.999991" height="500" preserveAspectRatio="xMidYMid meet" version="1.0"><path fill="#fdd200" d="M 373.445312 222.527344 C 373.445312 213.175781 369.726562 204.460938 363.328125 198.019531 C 370.597656 190.066406 374.285156 179.394531 373.273438 168.3125 C 371.46875 148.539062 353.636719 133.039062 332.707031 133.039062 L 236.609375 133.039062 C 241.339844 118.585938 248.960938 92.085938 248.960938 70.796875 C 248.960938 37.046875 220.285156 8.558594 202.28125 8.558594 C 186.113281 8.558594 174.554688 17.644531 174.070312 18.035156 C 172.21875 19.527344 171.160156 21.753906 171.160156 24.117188 L 171.160156 76.867188 L 126.347656 173.976562 L 124.480469 174.910156 L 124.480469 171.941406 C 124.480469 167.644531 120.996094 164.160156 116.703125 164.160156 L 38.902344 164.160156 C 17.457031 164.160156 0 181.617188 0 203.058594 L 0 327.542969 C 0 348.984375 17.457031 366.441406 38.902344 366.441406 L 85.582031 366.441406 C 102.417969 366.441406 116.777344 355.707031 122.210938 340.738281 C 135.15625 347.394531 152.582031 350.898438 163.398438 350.898438 L 306.222656 350.898438 C 323.167969 350.898438 337.980469 339.460938 341.46875 323.714844 C 343.257812 315.605469 342.214844 307.4375 338.667969 300.34375 C 350.148438 294.554688 357.882812 282.710938 357.882812 269.207031 C 357.882812 263.699219 356.625 258.421875 354.226562 253.644531 C 365.710938 247.859375 373.445312 236.015625 373.445312 222.527344 Z M 85.582031 350.882812 L 38.902344 350.882812 C 26.015625 350.882812 15.558594 340.410156 15.558594 327.542969 L 15.558594 203.058594 C 15.558594 190.191406 26.03125 179.71875 38.902344 179.71875 L 38.902344 179.796875 L 108.890625 179.796875 L 108.890625 187.578125 C 108.890625 187.625 108.921875 187.65625 108.921875 187.703125 L 108.921875 327.542969 C 108.921875 340.410156 98.433594 350.882812 85.582031 350.882812 Z M 340.613281 241.742188 C 337.609375 242.085938 335.074219 244.125 334.125 247.003906 C 333.175781 249.863281 333.953125 253.039062 336.160156 255.109375 C 340.128906 258.859375 342.308594 263.871094 342.308594 269.222656 C 342.308594 279.023438 334.902344 287.289062 325.066406 288.40625 C 322.0625 288.75 319.527344 290.789062 318.578125 293.667969 C 317.628906 296.53125 318.40625 299.703125 320.617188 301.773438 C 325.753906 306.613281 327.804688 313.398438 326.265625 320.351562 C 324.351562 329.019531 315.917969 335.320312 306.207031 335.320312 L 163.382812 335.320312 C 151.820312 335.320312 133.210938 330.328125 124.480469 323.839844 L 124.480469 192.355469 L 135.699219 186.753906 C 137.273438 185.960938 138.53125 184.652344 139.277344 183.050781 L 185.960938 81.910156 C 186.425781 80.898438 186.675781 79.777344 186.675781 78.65625 L 186.675781 28.429688 C 189.910156 26.640625 195.527344 24.195312 202.234375 24.195312 C 210.761719 24.195312 233.355469 45.40625 233.355469 70.875 C 233.355469 98.246094 218.464844 137.738281 218.308594 138.128906 C 217.40625 140.507812 217.71875 143.199219 219.179688 145.300781 C 220.644531 147.402344 223.023438 148.660156 225.589844 148.660156 L 332.660156 148.660156 C 345.636719 148.660156 356.65625 157.9375 357.742188 169.792969 C 358.570312 178.660156 354.335938 187.09375 346.679688 191.808594 C 344.285156 193.273438 342.882812 195.933594 342.992188 198.734375 C 343.085938 201.535156 344.703125 204.054688 347.210938 205.347656 C 353.777344 208.707031 357.851562 215.304688 357.851562 222.558594 C 357.835938 232.359375 350.429688 240.621094 340.613281 241.742188 Z M 340.613281 241.742188 " fill-opacity="1" fill-rule="nonzero"/></svg>