<svg xmlns="http://www.w3.org/2000/svg" xmlns:xlink="http://www.w3.org/1999/xlink" width="500" zoomAndPan="magnify" viewBox="0 0 375 374.999991" height="500" preserveAspectRatio="xMidYMid meet" version="1.0"><path fill="#fdd200" d="M 344.4375 33.96875 C 306.941406 -3.527344 245.9375 -3.527344 208.464844 33.96875 L 162.414062 80.007812 C 155.535156 86.886719 155.535156 98.03125 162.414062 104.914062 C 169.296875 111.792969 180.441406 111.792969 187.320312 104.914062 L 233.371094 58.875 C 292.074219 3.730469 374.800781 86.429688 319.53125 145.035156 C 319.53125 145.035156 265.71875 198.859375 265.71875 198.859375 C 238.472656 226.847656 189.835938 220.773438 170.339844 186.980469 C 165.375 178.597656 154.558594 175.859375 146.199219 180.8125 C 127.789062 192.421875 143.472656 213.035156 154.640625 223.765625 C 173.386719 242.511719 198.007812 251.882812 222.625 251.882812 C 247.257812 251.882812 271.875 242.511719 290.625 223.765625 L 344.4375 169.953125 C 381.761719 134.148438 381.777344 69.761719 344.4375 33.96875 Z M 344.4375 33.96875 " fill-opacity="1" fill-rule="nonzero"/><path fill="#fdd200" d="M 193.925781 270.652344 L 147.875 316.691406 C 89.609375 372.003906 6.398438 288.832031 61.714844 230.53125 C 61.714844 230.53125 115.527344 176.707031 115.527344 176.707031 C 142.734375 148.777344 191.292969 154.726562 210.816406 188.484375 C 215.769531 196.863281 226.59375 199.628906 234.941406 194.652344 C 253.328125 183.109375 237.710938 162.445312 226.605469 151.800781 C 189.109375 114.304688 128.117188 114.328125 90.621094 151.800781 C 90.621094 151.800781 36.808594 205.625 36.808594 205.625 C -23.773438 265.363281 20.652344 370.699219 104.796875 369.714844 C 129.414062 369.714844 154.042969 360.347656 172.78125 341.597656 L 218.832031 295.558594 C 234.910156 278.890625 210.578125 254.566406 193.925781 270.652344 Z M 193.925781 270.652344 " fill-opacity="1" fill-rule="nonzero"/></svg>