<svg xmlns="http://www.w3.org/2000/svg" xmlns:xlink="http://www.w3.org/1999/xlink" width="500" zoomAndPan="magnify" viewBox="0 0 375 374.999991" height="500" preserveAspectRatio="xMidYMid meet" version="1.0"><path fill="#fdd200" d="M 187.621094 203.410156 C 147.046875 203.410156 114.035156 170.398438 114.035156 129.820312 C 114.035156 89.246094 147.046875 56.234375 187.621094 56.234375 C 228.199219 56.234375 261.210938 89.246094 261.210938 129.820312 C 261.210938 170.398438 228.199219 203.410156 187.621094 203.410156 Z M 187.621094 203.410156 " fill-opacity="1" fill-rule="nonzero"/><path fill="#fdd200" d="M 320.207031 54.917969 C 284.789062 19.503906 237.707031 0 187.625 0 C 137.542969 0 90.453125 19.503906 55.042969 54.917969 C 19.628906 90.328125 0.125 137.417969 0.125 187.5 C 0.125 237.582031 19.628906 284.671875 55.042969 320.082031 C 90.453125 355.496094 137.542969 375 187.625 375 C 237.707031 375 284.789062 355.496094 320.207031 320.082031 C 355.621094 284.671875 375.125 237.582031 375.125 187.5 C 375.125 137.417969 355.621094 90.328125 320.207031 54.917969 Z M 50.765625 292.507812 C 28.382812 263.402344 15.050781 226.976562 15.050781 187.5 C 15.050781 92.34375 92.46875 14.925781 187.625 14.925781 C 282.78125 14.925781 360.191406 92.34375 360.191406 187.5 C 360.191406 226.992188 346.859375 263.429688 324.457031 292.542969 C 318.902344 273.96875 304.769531 257.386719 283.304688 244.707031 C 257.371094 229.386719 223.234375 220.949219 187.183594 220.949219 C 151.175781 220.949219 117.183594 229.386719 91.46875 244.722656 C 70.246094 257.378906 56.265625 273.933594 50.765625 292.507812 Z M 50.765625 292.507812 " fill-opacity="1" fill-rule="nonzero"/></svg>