<svg xmlns="http://www.w3.org/2000/svg" xmlns:xlink="http://www.w3.org/1999/xlink" width="500" zoomAndPan="magnify" viewBox="0 0 375 374.999991" height="500" preserveAspectRatio="xMidYMid meet" version="1.0"><path fill="#1c1e1f" d="M 15.519531 71.816406 L 362.5625 71.816406 C 368.945312 71.816406 374.128906 66.644531 374.128906 60.25 C 374.128906 53.851562 368.945312 48.679688 362.5625 48.679688 L 15.519531 48.679688 C 9.132812 48.679688 3.953125 53.851562 3.953125 60.25 C 3.953125 66.644531 9.121094 71.816406 15.519531 71.816406 Z M 15.519531 71.816406 " fill-opacity="1" fill-rule="nonzero"/><path fill="#1c1e1f" d="M 15.519531 326.3125 L 362.5625 326.3125 C 368.945312 326.3125 374.128906 321.140625 374.128906 314.746094 C 374.128906 308.347656 368.945312 303.175781 362.5625 303.175781 L 15.519531 303.175781 C 9.132812 303.175781 3.953125 308.347656 3.953125 314.746094 C 3.953125 321.140625 9.121094 326.3125 15.519531 326.3125 Z M 15.519531 326.3125 " fill-opacity="1" fill-rule="nonzero"/><path fill="#1c1e1f" d="M 15.519531 199.066406 L 362.5625 199.066406 C 368.945312 199.066406 374.128906 193.894531 374.128906 187.496094 C 374.128906 181.097656 368.945312 175.929688 362.5625 175.929688 L 15.519531 175.929688 C 9.132812 175.929688 3.953125 181.097656 3.953125 187.496094 C 3.953125 193.894531 9.121094 199.066406 15.519531 199.066406 Z M 15.519531 199.066406 " fill-opacity="1" fill-rule="nonzero"/></svg>