<svg xmlns="http://www.w3.org/2000/svg" xmlns:xlink="http://www.w3.org/1999/xlink" width="500" zoomAndPan="magnify" viewBox="0 0 375 374.999991" height="500" preserveAspectRatio="xMidYMid meet" version="1.0"><path fill="#1c1e1f" d="M 303 7.832031 L 71.996094 7.832031 C 70.949219 7.832031 69.898438 7.855469 68.847656 7.90625 C 67.800781 7.957031 66.753906 8.035156 65.707031 8.140625 C 64.664062 8.242188 63.621094 8.371094 62.582031 8.523438 C 61.542969 8.679688 60.507812 8.859375 59.480469 9.0625 C 58.449219 9.269531 57.425781 9.496094 56.40625 9.753906 C 55.386719 10.007812 54.375 10.289062 53.371094 10.59375 C 52.367188 10.898438 51.367188 11.226562 50.378906 11.582031 C 49.390625 11.933594 48.410156 12.3125 47.441406 12.714844 C 46.472656 13.117188 45.511719 13.542969 44.5625 13.992188 C 43.613281 14.441406 42.675781 14.910156 41.75 15.40625 C 40.824219 15.902344 39.910156 16.417969 39.007812 16.960938 C 38.109375 17.5 37.222656 18.0625 36.347656 18.644531 C 35.476562 19.226562 34.617188 19.832031 33.773438 20.457031 C 32.929688 21.082031 32.101562 21.730469 31.289062 22.394531 C 30.476562 23.0625 29.683594 23.746094 28.90625 24.453125 C 28.128906 25.15625 27.367188 25.882812 26.625 26.625 C 25.882812 27.367188 25.15625 28.128906 24.453125 28.90625 C 23.746094 29.683594 23.0625 30.476562 22.394531 31.289062 C 21.730469 32.101562 21.082031 32.929688 20.457031 33.773438 C 19.832031 34.617188 19.226562 35.476562 18.644531 36.347656 C 18.0625 37.222656 17.5 38.109375 16.960938 39.007812 C 16.417969 39.910156 15.902344 40.824219 15.40625 41.75 C 14.910156 42.675781 14.441406 43.613281 13.992188 44.5625 C 13.542969 45.511719 13.117188 46.472656 12.714844 47.441406 C 12.3125 48.410156 11.933594 49.390625 11.582031 50.378906 C 11.226562 51.367188 10.898438 52.367188 10.59375 53.371094 C 10.289062 54.375 10.007812 55.386719 9.753906 56.40625 C 9.496094 57.425781 9.269531 58.449219 9.0625 59.480469 C 8.859375 60.507812 8.679688 61.542969 8.523438 62.582031 C 8.371094 63.621094 8.242188 64.664062 8.140625 65.707031 C 8.035156 66.753906 7.957031 67.800781 7.90625 68.847656 C 7.855469 69.898438 7.832031 70.949219 7.832031 71.996094 L 7.832031 303 C 7.832031 304.050781 7.855469 305.101562 7.90625 306.148438 C 7.957031 307.199219 8.035156 308.246094 8.140625 309.289062 C 8.242188 310.335938 8.371094 311.378906 8.523438 312.414062 C 8.679688 313.453125 8.859375 314.488281 9.0625 315.519531 C 9.269531 316.550781 9.496094 317.574219 9.753906 318.59375 C 10.007812 319.609375 10.289062 320.621094 10.59375 321.628906 C 10.898438 322.632812 11.226562 323.628906 11.582031 324.617188 C 11.933594 325.605469 12.3125 326.585938 12.714844 327.554688 C 13.117188 328.527344 13.542969 329.484375 13.992188 330.4375 C 14.441406 331.386719 14.910156 332.324219 15.40625 333.25 C 15.902344 334.175781 16.417969 335.089844 16.960938 335.988281 C 17.5 336.890625 18.0625 337.777344 18.644531 338.648438 C 19.226562 339.523438 19.832031 340.382812 20.457031 341.226562 C 21.082031 342.070312 21.730469 342.894531 22.394531 343.707031 C 23.0625 344.519531 23.746094 345.316406 24.453125 346.09375 C 25.15625 346.871094 25.882812 347.632812 26.625 348.375 C 27.367188 349.117188 28.128906 349.839844 28.90625 350.546875 C 29.683594 351.25 30.476562 351.9375 31.289062 352.601562 C 32.101562 353.269531 32.929688 353.914062 33.773438 354.539062 C 34.617188 355.164062 35.476562 355.769531 36.347656 356.355469 C 37.222656 356.9375 38.109375 357.5 39.007812 358.039062 C 39.910156 358.578125 40.824219 359.097656 41.75 359.589844 C 42.675781 360.085938 43.613281 360.558594 44.5625 361.007812 C 45.511719 361.457031 46.472656 361.882812 47.441406 362.285156 C 48.410156 362.683594 49.390625 363.0625 50.378906 363.417969 C 51.367188 363.769531 52.367188 364.101562 53.371094 364.40625 C 54.375 364.710938 55.386719 364.988281 56.40625 365.246094 C 57.425781 365.5 58.449219 365.730469 59.480469 365.933594 C 60.507812 366.140625 61.542969 366.320312 62.582031 366.472656 C 63.621094 366.628906 64.664062 366.757812 65.707031 366.859375 C 66.753906 366.960938 67.800781 367.039062 68.847656 367.089844 C 69.898438 367.140625 70.949219 367.167969 71.996094 367.167969 L 303 367.167969 C 304.050781 367.167969 305.101562 367.140625 306.148438 367.089844 C 307.199219 367.039062 308.246094 366.960938 309.289062 366.859375 C 310.335938 366.757812 311.378906 366.628906 312.414062 366.472656 C 313.453125 366.320312 314.488281 366.140625 315.519531 365.933594 C 316.550781 365.730469 317.574219 365.5 318.59375 365.246094 C 319.609375 364.988281 320.621094 364.710938 321.628906 364.40625 C 322.632812 364.101562 323.628906 363.769531 324.617188 363.417969 C 325.605469 363.0625 326.585938 362.683594 327.554688 362.285156 C 328.527344 361.882812 329.484375 361.457031 330.4375 361.007812 C 331.386719 360.558594 332.324219 360.085938 333.25 359.589844 C 334.175781 359.097656 335.089844 358.578125 335.988281 358.039062 C 336.890625 357.5 337.777344 356.9375 338.648438 356.355469 C 339.523438 355.769531 340.382812 355.164062 341.226562 354.539062 C 342.070312 353.914062 342.894531 353.269531 343.707031 352.601562 C 344.519531 351.9375 345.316406 351.25 346.09375 350.546875 C 346.871094 349.839844 347.632812 349.117188 348.375 348.375 C 349.117188 347.632812 349.839844 346.871094 350.546875 346.09375 C 351.25 345.316406 351.9375 344.519531 352.601562 343.707031 C 353.269531 342.894531 353.914062 342.070312 354.539062 341.226562 C 355.164062 340.382812 355.769531 339.523438 356.355469 338.648438 C 356.9375 337.777344 357.5 336.890625 358.039062 335.988281 C 358.578125 335.089844 359.097656 334.175781 359.589844 333.25 C 360.085938 332.324219 360.558594 331.386719 361.007812 330.4375 C 361.457031 329.484375 361.882812 328.527344 362.285156 327.554688 C 362.683594 326.585938 363.0625 325.605469 363.417969 324.617188 C 363.769531 323.628906 364.101562 322.632812 364.40625 321.628906 C 364.710938 320.621094 364.988281 319.609375 365.246094 318.59375 C 365.5 317.574219 365.730469 316.550781 365.933594 315.519531 C 366.140625 314.488281 366.320312 313.453125 366.472656 312.414062 C 366.628906 311.378906 366.757812 310.335938 366.859375 309.289062 C 366.960938 308.246094 367.039062 307.199219 367.089844 306.148438 C 367.140625 305.101562 367.167969 304.050781 367.167969 303 L 367.167969 71.996094 C 367.167969 70.949219 367.140625 69.898438 367.089844 68.847656 C 367.039062 67.800781 366.960938 66.753906 366.859375 65.707031 C 366.757812 64.664062 366.628906 63.621094 366.472656 62.582031 C 366.320312 61.542969 366.140625 60.507812 365.933594 59.480469 C 365.730469 58.449219 365.5 57.425781 365.246094 56.40625 C 364.988281 55.386719 364.710938 54.375 364.40625 53.371094 C 364.101562 52.367188 363.769531 51.367188 363.417969 50.378906 C 363.0625 49.390625 362.683594 48.410156 362.285156 47.441406 C 361.882812 46.472656 361.457031 45.511719 361.007812 44.5625 C 360.558594 43.613281 360.085938 42.675781 359.589844 41.75 C 359.097656 40.824219 358.578125 39.910156 358.039062 39.007812 C 357.5 38.109375 356.9375 37.222656 356.355469 36.347656 C 355.769531 35.476562 355.164062 34.617188 354.539062 33.773438 C 353.914062 32.929688 353.269531 32.101562 352.601562 31.289062 C 351.9375 30.476562 351.25 29.683594 350.546875 28.90625 C 349.839844 28.128906 349.117188 27.367188 348.375 26.625 C 347.632812 25.882812 346.871094 25.15625 346.09375 24.453125 C 345.316406 23.746094 344.519531 23.0625 343.707031 22.394531 C 342.894531 21.730469 342.070312 21.082031 341.226562 20.457031 C 340.382812 19.832031 339.523438 19.226562 338.648438 18.644531 C 337.777344 18.0625 336.890625 17.5 335.988281 16.960938 C 335.089844 16.417969 334.175781 15.902344 333.25 15.40625 C 332.324219 14.910156 331.386719 14.441406 330.4375 13.992188 C 329.484375 13.542969 328.527344 13.117188 327.554688 12.714844 C 326.585938 12.3125 325.605469 11.933594 324.617188 11.582031 C 323.628906 11.226562 322.632812 10.898438 321.628906 10.59375 C 320.621094 10.289062 319.609375 10.007812 318.59375 9.753906 C 317.574219 9.496094 316.550781 9.269531 315.519531 9.0625 C 314.488281 8.859375 313.453125 8.679688 312.414062 8.523438 C 311.378906 8.371094 310.335938 8.242188 309.289062 8.140625 C 308.246094 8.035156 307.199219 7.957031 306.148438 7.90625 C 305.101562 7.855469 304.050781 7.832031 303 7.832031 Z M 71.996094 33.496094 L 303 33.496094 C 304.261719 33.496094 305.519531 33.558594 306.773438 33.683594 C 308.027344 33.804688 309.273438 33.992188 310.511719 34.238281 C 311.75 34.484375 312.96875 34.789062 314.175781 35.15625 C 315.382812 35.519531 316.570312 35.945312 317.734375 36.429688 C 318.898438 36.910156 320.039062 37.449219 321.148438 38.042969 C 322.261719 38.636719 323.34375 39.285156 324.390625 39.984375 C 325.4375 40.6875 326.449219 41.4375 327.425781 42.234375 C 328.398438 43.035156 329.332031 43.882812 330.222656 44.773438 C 331.117188 45.664062 331.960938 46.597656 332.761719 47.574219 C 333.5625 48.546875 334.3125 49.558594 335.011719 50.609375 C 335.714844 51.65625 336.359375 52.738281 336.953125 53.847656 C 337.550781 54.960938 338.085938 56.097656 338.570312 57.265625 C 339.054688 58.429688 339.476562 59.613281 339.84375 60.820312 C 340.210938 62.027344 340.515625 63.25 340.761719 64.488281 C 341.007812 65.722656 341.191406 66.96875 341.316406 68.222656 C 341.4375 69.480469 341.5 70.738281 341.5 71.996094 L 341.5 143.738281 L 317.375 119.609375 C 316.484375 118.71875 315.550781 117.875 314.574219 117.078125 C 313.601562 116.277344 312.589844 115.527344 311.542969 114.828125 C 310.492188 114.128906 309.414062 113.484375 308.304688 112.890625 C 307.191406 112.296875 306.054688 111.757812 304.890625 111.277344 C 303.726562 110.792969 302.539062 110.371094 301.335938 110.003906 C 300.128906 109.640625 298.90625 109.335938 297.671875 109.089844 C 296.4375 108.84375 295.191406 108.660156 293.9375 108.535156 C 292.683594 108.410156 291.425781 108.351562 290.167969 108.351562 C 288.90625 108.351562 287.648438 108.410156 286.394531 108.535156 C 285.140625 108.660156 283.898438 108.84375 282.660156 109.089844 C 281.425781 109.335938 280.207031 109.640625 279 110.003906 C 277.792969 110.371094 276.609375 110.792969 275.445312 111.277344 C 274.28125 111.757812 273.144531 112.296875 272.03125 112.890625 C 270.917969 113.484375 269.839844 114.128906 268.792969 114.828125 C 267.746094 115.527344 266.734375 116.277344 265.757812 117.078125 C 264.785156 117.875 263.851562 118.71875 262.960938 119.609375 L 160.933594 222.277344 L 122.433594 191.222656 C 121.582031 190.523438 120.699219 189.863281 119.792969 189.242188 C 118.882812 188.621094 117.949219 188.039062 116.992188 187.496094 C 116.035156 186.957031 115.054688 186.457031 114.050781 186 C 113.050781 185.539062 112.03125 185.125 110.996094 184.757812 C 109.957031 184.386719 108.90625 184.0625 107.84375 183.78125 C 106.777344 183.5 105.703125 183.265625 104.617188 183.078125 C 103.535156 182.890625 102.441406 182.75 101.347656 182.65625 C 100.25 182.5625 99.152344 182.515625 98.050781 182.515625 C 96.949219 182.515625 95.851562 182.5625 94.753906 182.65625 C 93.65625 182.75 92.566406 182.890625 91.480469 183.078125 C 90.394531 183.265625 89.320312 183.5 88.257812 183.78125 C 87.191406 184.0625 86.140625 184.386719 85.105469 184.757812 C 84.066406 185.125 83.046875 185.539062 82.046875 186 C 81.046875 186.457031 80.066406 186.957031 79.105469 187.496094 C 78.148438 188.039062 77.214844 188.621094 76.308594 189.242188 C 75.398438 189.863281 74.519531 190.523438 73.664062 191.222656 L 33.496094 224.203125 L 33.496094 71.996094 C 33.496094 70.738281 33.558594 69.480469 33.683594 68.222656 C 33.804688 66.96875 33.992188 65.722656 34.238281 64.488281 C 34.484375 63.25 34.789062 62.027344 35.15625 60.820312 C 35.519531 59.613281 35.945312 58.429688 36.429688 57.265625 C 36.910156 56.097656 37.449219 54.960938 38.042969 53.847656 C 38.636719 52.738281 39.285156 51.65625 39.984375 50.609375 C 40.6875 49.558594 41.4375 48.546875 42.238281 47.574219 C 43.035156 46.597656 43.882812 45.664062 44.773438 44.773438 C 45.664062 43.882812 46.597656 43.035156 47.574219 42.234375 C 48.546875 41.4375 49.558594 40.6875 50.609375 39.984375 C 51.65625 39.285156 52.738281 38.636719 53.847656 38.042969 C 54.960938 37.449219 56.097656 36.910156 57.265625 36.429688 C 58.429688 35.945312 59.613281 35.519531 60.820312 35.15625 C 62.027344 34.789062 63.25 34.484375 64.488281 34.238281 C 65.722656 33.992188 66.96875 33.804688 68.222656 33.683594 C 69.480469 33.558594 70.738281 33.496094 71.996094 33.496094 Z M 303 341.5 L 71.996094 341.5 C 70.738281 341.5 69.480469 341.4375 68.222656 341.316406 C 66.96875 341.191406 65.722656 341.007812 64.488281 340.761719 C 63.25 340.515625 62.027344 340.210938 60.820312 339.84375 C 59.613281 339.476562 58.429688 339.054688 57.265625 338.570312 C 56.097656 338.085938 54.960938 337.550781 53.847656 336.953125 C 52.738281 336.359375 51.65625 335.714844 50.609375 335.011719 C 49.558594 334.3125 48.546875 333.5625 47.574219 332.761719 C 46.597656 331.960938 45.664062 331.117188 44.773438 330.222656 C 43.882812 329.332031 43.035156 328.398438 42.238281 327.425781 C 41.4375 326.449219 40.6875 325.4375 39.984375 324.390625 C 39.285156 323.339844 38.636719 322.261719 38.042969 321.148438 C 37.449219 320.039062 36.910156 318.898438 36.429688 317.734375 C 35.945312 316.570312 35.519531 315.382812 35.15625 314.175781 C 34.789062 312.96875 34.484375 311.75 34.238281 310.511719 C 33.992188 309.273438 33.804688 308.027344 33.683594 306.773438 C 33.558594 305.519531 33.496094 304.261719 33.496094 303 L 33.496094 257.699219 L 89.707031 210.726562 C 90.277344 210.257812 90.882812 209.84375 91.523438 209.480469 C 92.167969 209.117188 92.835938 208.808594 93.527344 208.558594 C 94.222656 208.3125 94.933594 208.125 95.660156 207.996094 C 96.386719 207.871094 97.121094 207.808594 97.855469 207.808594 C 98.59375 207.808594 99.328125 207.871094 100.054688 207.996094 C 100.78125 208.125 101.492188 208.3125 102.183594 208.558594 C 102.878906 208.808594 103.546875 209.117188 104.1875 209.480469 C 104.832031 209.84375 105.4375 210.257812 106.007812 210.726562 L 153.875 249.226562 C 154.484375 249.71875 155.132812 250.148438 155.820312 250.515625 C 156.511719 250.886719 157.226562 251.191406 157.96875 251.433594 C 158.714844 251.671875 159.472656 251.84375 160.246094 251.945312 C 161.023438 252.046875 161.800781 252.074219 162.582031 252.035156 C 163.359375 251.992188 164.132812 251.882812 164.890625 251.699219 C 165.652344 251.519531 166.390625 251.269531 167.105469 250.953125 C 167.816406 250.636719 168.5 250.257812 169.144531 249.816406 C 169.789062 249.375 170.390625 248.878906 170.945312 248.328125 L 281.054688 138.089844 C 281.652344 137.488281 282.300781 136.953125 283.003906 136.480469 C 283.707031 136.007812 284.449219 135.605469 285.230469 135.28125 C 286.011719 134.957031 286.820312 134.710938 287.652344 134.542969 C 288.480469 134.378906 289.320312 134.292969 290.167969 134.292969 C 291.015625 134.292969 291.851562 134.378906 292.683594 134.542969 C 293.515625 134.710938 294.320312 134.957031 295.101562 135.28125 C 295.882812 135.605469 296.625 136.007812 297.328125 136.480469 C 298.03125 136.953125 298.683594 137.488281 299.277344 138.089844 L 341.5 179.925781 L 341.5 303 C 341.5 304.261719 341.4375 305.519531 341.316406 306.773438 C 341.191406 308.027344 341.007812 309.273438 340.761719 310.511719 C 340.515625 311.75 340.210938 312.96875 339.84375 314.175781 C 339.476562 315.382812 339.054688 316.570312 338.570312 317.734375 C 338.085938 318.898438 337.550781 320.039062 336.953125 321.148438 C 336.359375 322.261719 335.714844 323.339844 335.011719 324.390625 C 334.3125 325.4375 333.5625 326.449219 332.761719 327.425781 C 331.960938 328.398438 331.117188 329.332031 330.222656 330.222656 C 329.332031 331.117188 328.398438 331.960938 327.425781 332.761719 C 326.449219 333.5625 325.4375 334.3125 324.390625 335.011719 C 323.34375 335.714844 322.261719 336.359375 321.148438 336.953125 C 320.039062 337.550781 318.898438 338.085938 317.734375 338.570312 C 316.570312 339.054688 315.382812 339.476562 314.175781 339.84375 C 312.96875 340.210938 311.75 340.515625 310.511719 340.761719 C 309.273438 341.007812 308.027344 341.191406 306.773438 341.316406 C 305.519531 341.4375 304.261719 341.5 303 341.5 Z M 303 341.5 " fill-opacity="1" fill-rule="nonzero"/><path fill="#1c1e1f" d="M 110.5 149 C 111.757812 149 113.015625 148.9375 114.273438 148.8125 C 115.527344 148.691406 116.773438 148.503906 118.007812 148.257812 C 119.246094 148.011719 120.46875 147.707031 121.675781 147.339844 C 122.878906 146.976562 124.066406 146.550781 125.230469 146.066406 C 126.398438 145.585938 127.535156 145.046875 128.648438 144.453125 C 129.757812 143.859375 130.839844 143.210938 131.886719 142.511719 C 132.9375 141.808594 133.949219 141.058594 134.921875 140.257812 C 135.898438 139.460938 136.832031 138.613281 137.722656 137.722656 C 138.613281 136.832031 139.460938 135.898438 140.257812 134.921875 C 141.058594 133.949219 141.808594 132.9375 142.511719 131.886719 C 143.210938 130.839844 143.859375 129.757812 144.453125 128.648438 C 145.046875 127.535156 145.585938 126.398438 146.066406 125.230469 C 146.550781 124.066406 146.976562 122.878906 147.339844 121.675781 C 147.707031 120.46875 148.011719 119.246094 148.257812 118.007812 C 148.503906 116.773438 148.691406 115.527344 148.8125 114.273438 C 148.9375 113.015625 149 111.757812 149 110.5 C 149 109.238281 148.9375 107.980469 148.8125 106.722656 C 148.691406 105.46875 148.503906 104.222656 148.257812 102.988281 C 148.011719 101.75 147.707031 100.527344 147.339844 99.320312 C 146.976562 98.117188 146.550781 96.929688 146.066406 95.765625 C 145.585938 94.601562 145.046875 93.460938 144.453125 92.347656 C 143.859375 91.238281 143.210938 90.15625 142.511719 89.109375 C 141.808594 88.058594 141.058594 87.046875 140.257812 86.074219 C 139.460938 85.097656 138.613281 84.164062 137.722656 83.273438 C 136.832031 82.382812 135.898438 81.535156 134.921875 80.738281 C 133.949219 79.9375 132.9375 79.1875 131.886719 78.484375 C 130.839844 77.785156 129.757812 77.136719 128.648438 76.542969 C 127.535156 75.949219 126.398438 75.410156 125.230469 74.929688 C 124.066406 74.445312 122.878906 74.019531 121.675781 73.65625 C 120.46875 73.289062 119.246094 72.984375 118.007812 72.738281 C 116.773438 72.492188 115.527344 72.304688 114.273438 72.183594 C 113.015625 72.058594 111.757812 71.996094 110.5 71.996094 C 109.238281 71.996094 107.980469 72.058594 106.722656 72.183594 C 105.46875 72.304688 104.222656 72.492188 102.988281 72.738281 C 101.75 72.984375 100.527344 73.289062 99.320312 73.65625 C 98.117188 74.019531 96.929688 74.445312 95.765625 74.929688 C 94.601562 75.410156 93.460938 75.949219 92.347656 76.542969 C 91.238281 77.136719 90.15625 77.785156 89.109375 78.484375 C 88.058594 79.1875 87.046875 79.9375 86.074219 80.738281 C 85.097656 81.535156 84.164062 82.382812 83.273438 83.273438 C 82.382812 84.164062 81.535156 85.097656 80.738281 86.074219 C 79.9375 87.046875 79.1875 88.058594 78.484375 89.109375 C 77.785156 90.15625 77.136719 91.238281 76.542969 92.347656 C 75.949219 93.460938 75.410156 94.601562 74.929688 95.765625 C 74.445312 96.929688 74.019531 98.117188 73.65625 99.320312 C 73.289062 100.527344 72.984375 101.75 72.738281 102.988281 C 72.492188 104.222656 72.304688 105.46875 72.183594 106.722656 C 72.058594 107.980469 71.996094 109.238281 71.996094 110.5 C 71.996094 111.757812 72.058594 113.015625 72.183594 114.273438 C 72.304688 115.527344 72.492188 116.773438 72.738281 118.007812 C 72.984375 119.246094 73.289062 120.46875 73.65625 121.675781 C 74.019531 122.878906 74.445312 124.066406 74.929688 125.230469 C 75.410156 126.398438 75.949219 127.535156 76.542969 128.648438 C 77.136719 129.757812 77.785156 130.839844 78.484375 131.886719 C 79.1875 132.9375 79.9375 133.949219 80.738281 134.921875 C 81.535156 135.898438 82.382812 136.832031 83.273438 137.722656 C 84.164062 138.613281 85.097656 139.460938 86.074219 140.257812 C 87.046875 141.058594 88.058594 141.808594 89.109375 142.511719 C 90.15625 143.210938 91.238281 143.859375 92.347656 144.453125 C 93.460938 145.046875 94.601562 145.585938 95.765625 146.066406 C 96.929688 146.550781 98.117188 146.976562 99.320312 147.339844 C 100.527344 147.707031 101.75 148.011719 102.988281 148.257812 C 104.222656 148.503906 105.46875 148.691406 106.722656 148.8125 C 107.980469 148.9375 109.238281 149 110.5 149 Z M 110.5 97.664062 C 111.339844 97.664062 112.175781 97.746094 113 97.910156 C 113.828125 98.074219 114.628906 98.320312 115.410156 98.640625 C 116.1875 98.964844 116.925781 99.359375 117.628906 99.828125 C 118.328125 100.296875 118.976562 100.828125 119.574219 101.421875 C 120.167969 102.019531 120.699219 102.667969 121.167969 103.367188 C 121.636719 104.070312 122.03125 104.808594 122.355469 105.585938 C 122.675781 106.367188 122.921875 107.167969 123.085938 107.996094 C 123.25 108.820312 123.332031 109.65625 123.332031 110.5 C 123.332031 111.339844 123.25 112.175781 123.085938 113 C 122.921875 113.828125 122.675781 114.628906 122.355469 115.410156 C 122.03125 116.1875 121.636719 116.925781 121.167969 117.628906 C 120.699219 118.328125 120.167969 118.976562 119.574219 119.574219 C 118.976562 120.167969 118.328125 120.699219 117.628906 121.167969 C 116.925781 121.636719 116.1875 122.03125 115.410156 122.355469 C 114.628906 122.675781 113.828125 122.921875 113 123.085938 C 112.175781 123.25 111.339844 123.332031 110.5 123.332031 C 109.65625 123.332031 108.820312 123.25 107.996094 123.085938 C 107.167969 122.921875 106.367188 122.675781 105.585938 122.355469 C 104.808594 122.03125 104.070312 121.636719 103.367188 121.167969 C 102.667969 120.699219 102.019531 120.167969 101.421875 119.574219 C 100.828125 118.976562 100.296875 118.328125 99.828125 117.628906 C 99.359375 116.925781 98.964844 116.1875 98.640625 115.410156 C 98.320312 114.628906 98.074219 113.828125 97.910156 113 C 97.746094 112.175781 97.664062 111.339844 97.664062 110.5 C 97.664062 109.65625 97.746094 108.820312 97.910156 107.996094 C 98.074219 107.167969 98.320312 106.367188 98.640625 105.585938 C 98.964844 104.808594 99.359375 104.070312 99.828125 103.367188 C 100.296875 102.667969 100.828125 102.019531 101.421875 101.421875 C 102.019531 100.828125 102.667969 100.296875 103.367188 99.828125 C 104.070312 99.359375 104.808594 98.964844 105.585938 98.640625 C 106.367188 98.320312 107.167969 98.074219 107.996094 97.910156 C 108.820312 97.746094 109.65625 97.664062 110.5 97.664062 Z M 110.5 97.664062 " fill-opacity="1" fill-rule="nonzero"/></svg>