<svg xmlns="http://www.w3.org/2000/svg" xmlns:xlink="http://www.w3.org/1999/xlink" width="500" zoomAndPan="magnify" viewBox="0 0 375 374.999991" height="500" preserveAspectRatio="xMidYMid meet" version="1.0"><path fill="#1c1e1f" d="M 315 165 L 330 165 L 330 356.25 C 329.996094 356.863281 329.960938 357.472656 329.894531 358.082031 C 329.832031 358.691406 329.738281 359.296875 329.613281 359.898438 C 329.492188 360.496094 329.339844 361.089844 329.160156 361.675781 C 328.980469 362.261719 328.769531 362.835938 328.53125 363.402344 C 328.296875 363.96875 328.03125 364.519531 327.742188 365.058594 C 327.453125 365.597656 327.136719 366.125 326.792969 366.632812 C 326.453125 367.140625 326.085938 367.632812 325.699219 368.105469 C 325.308594 368.578125 324.898438 369.03125 324.464844 369.464844 C 324.03125 369.898438 323.578125 370.308594 323.105469 370.699219 C 322.632812 371.085938 322.140625 371.453125 321.632812 371.792969 C 321.125 372.136719 320.597656 372.453125 320.058594 372.742188 C 319.519531 373.03125 318.96875 373.296875 318.402344 373.53125 C 317.835938 373.769531 317.261719 373.980469 316.675781 374.160156 C 316.089844 374.339844 315.496094 374.492188 314.898438 374.617188 C 314.296875 374.738281 313.691406 374.832031 313.082031 374.894531 C 312.472656 374.960938 311.863281 374.996094 311.25 375 L 18.75 375 C 18.136719 375 17.523438 374.96875 16.914062 374.910156 C 16.300781 374.847656 15.695312 374.757812 15.09375 374.640625 C 14.488281 374.519531 13.894531 374.371094 13.308594 374.191406 C 12.71875 374.015625 12.140625 373.808594 11.574219 373.574219 C 11.007812 373.335938 10.453125 373.074219 9.910156 372.785156 C 9.371094 372.496094 8.84375 372.179688 8.332031 371.839844 C 7.824219 371.5 7.328125 371.132812 6.855469 370.742188 C 6.378906 370.355469 5.925781 369.941406 5.492188 369.507812 C 5.058594 369.074219 4.644531 368.621094 4.257812 368.144531 C 3.867188 367.671875 3.5 367.175781 3.160156 366.667969 C 2.820312 366.15625 2.503906 365.628906 2.214844 365.089844 C 1.925781 364.546875 1.664062 363.992188 1.425781 363.425781 C 1.191406 362.859375 0.984375 362.28125 0.808594 361.691406 C 0.628906 361.105469 0.480469 360.511719 0.359375 359.90625 C 0.242188 359.304688 0.152344 358.699219 0.0898438 358.085938 C 0.03125 357.476562 0 356.863281 0 356.25 L 0 63.75 C 0 63.136719 0.03125 62.523438 0.0898438 61.914062 C 0.152344 61.300781 0.242188 60.695312 0.359375 60.09375 C 0.480469 59.488281 0.628906 58.894531 0.808594 58.308594 C 0.984375 57.71875 1.191406 57.140625 1.425781 56.574219 C 1.664062 56.007812 1.925781 55.453125 2.214844 54.910156 C 2.503906 54.371094 2.820312 53.84375 3.160156 53.332031 C 3.5 52.824219 3.867188 52.328125 4.257812 51.855469 C 4.644531 51.378906 5.058594 50.925781 5.492188 50.492188 C 5.925781 50.058594 6.378906 49.644531 6.855469 49.257812 C 7.328125 48.867188 7.824219 48.5 8.332031 48.160156 C 8.84375 47.820312 9.371094 47.503906 9.910156 47.214844 C 10.453125 46.925781 11.007812 46.664062 11.574219 46.425781 C 12.140625 46.191406 12.71875 45.984375 13.308594 45.808594 C 13.894531 45.628906 14.488281 45.480469 15.09375 45.359375 C 15.695312 45.242188 16.300781 45.152344 16.914062 45.089844 C 17.523438 45.03125 18.136719 45 18.75 45 L 210 45 L 210 60 L 18.75 60 C 18.253906 60 17.773438 60.09375 17.316406 60.285156 C 16.855469 60.476562 16.449219 60.746094 16.097656 61.097656 C 15.746094 61.449219 15.476562 61.855469 15.285156 62.316406 C 15.09375 62.773438 15 63.253906 15 63.75 L 15 356.25 C 15 356.746094 15.09375 357.226562 15.285156 357.683594 C 15.476562 358.144531 15.746094 358.550781 16.097656 358.902344 C 16.449219 359.253906 16.855469 359.523438 17.316406 359.714844 C 17.773438 359.90625 18.253906 360 18.75 360 L 311.25 360 C 311.746094 360 312.226562 359.90625 312.683594 359.714844 C 313.144531 359.523438 313.550781 359.253906 313.902344 358.902344 C 314.253906 358.550781 314.523438 358.144531 314.714844 357.683594 C 314.90625 357.226562 315 356.746094 315 356.25 Z M 130.800781 193.050781 L 120 246 C 119.890625 246.542969 119.839844 247.09375 119.851562 247.652344 C 119.859375 248.207031 119.933594 248.753906 120.066406 249.296875 C 120.199219 249.835938 120.390625 250.355469 120.640625 250.851562 C 120.886719 251.347656 121.1875 251.8125 121.539062 252.242188 C 121.890625 252.675781 122.285156 253.0625 122.722656 253.40625 C 123.160156 253.746094 123.632812 254.039062 124.132812 254.277344 C 124.636719 254.515625 125.160156 254.695312 125.703125 254.816406 C 126.246094 254.9375 126.792969 255 127.351562 255 L 128.851562 255 L 181.351562 244.351562 C 182.808594 244.023438 184.058594 243.324219 185.101562 242.25 L 340.199219 87.300781 L 287.699219 34.800781 L 132.75 189.300781 C 131.734375 190.359375 131.082031 191.609375 130.800781 193.050781 Z M 368.101562 26.25 L 348.75 6.898438 C 348.207031 6.363281 347.640625 5.851562 347.050781 5.367188 C 346.460938 4.886719 345.84375 4.433594 345.210938 4.007812 C 344.574219 3.585938 343.917969 3.195312 343.246094 2.835938 C 342.570312 2.476562 341.878906 2.152344 341.175781 1.859375 C 340.46875 1.570312 339.75 1.3125 339.019531 1.09375 C 338.289062 0.871094 337.546875 0.6875 336.800781 0.539062 C 336.050781 0.390625 335.296875 0.277344 334.535156 0.203125 C 333.777344 0.128906 333.011719 0.09375 332.25 0.09375 C 331.488281 0.09375 330.722656 0.128906 329.964844 0.203125 C 329.203125 0.277344 328.449219 0.390625 327.699219 0.539062 C 326.953125 0.6875 326.210938 0.871094 325.480469 1.09375 C 324.75 1.3125 324.03125 1.570312 323.324219 1.859375 C 322.621094 2.152344 321.929688 2.476562 321.253906 2.835938 C 320.582031 3.195312 319.925781 3.585938 319.289062 4.007812 C 318.65625 4.433594 318.039062 4.886719 317.449219 5.367188 C 316.859375 5.851562 316.292969 6.363281 315.75 6.898438 L 298.199219 24.148438 L 350.699219 76.648438 L 368.101562 60 C 368.636719 59.457031 369.148438 58.890625 369.632812 58.300781 C 370.117188 57.710938 370.566406 57.09375 370.992188 56.460938 C 371.414062 55.824219 371.804688 55.167969 372.164062 54.496094 C 372.523438 53.820312 372.847656 53.128906 373.140625 52.425781 C 373.429688 51.71875 373.6875 51 373.90625 50.269531 C 374.128906 49.539062 374.3125 48.796875 374.460938 48.050781 C 374.609375 47.300781 374.722656 46.546875 374.796875 45.785156 C 374.871094 45.027344 374.90625 44.261719 374.90625 43.5 C 374.90625 42.738281 374.871094 41.972656 374.796875 41.214844 C 374.722656 40.453125 374.609375 39.699219 374.460938 38.949219 C 374.3125 38.203125 374.128906 37.460938 373.90625 36.730469 C 373.6875 36 373.429688 35.28125 373.140625 34.574219 C 372.847656 33.871094 372.523438 33.179688 372.164062 32.503906 C 371.804688 31.832031 371.414062 31.175781 370.992188 30.539062 C 370.566406 29.90625 370.117188 29.289062 369.632812 28.699219 C 369.148438 28.109375 368.636719 27.542969 368.101562 27 Z M 368.101562 26.25 " fill-opacity="1" fill-rule="nonzero"/></svg>