<svg xmlns="http://www.w3.org/2000/svg" xmlns:xlink="http://www.w3.org/1999/xlink" width="500" zoomAndPan="magnify" viewBox="0 0 375 374.999991" height="500" preserveAspectRatio="xMidYMid meet" version="1.0"><path fill="#1c1e1f" d="M 188.269531 359.375 C 93.074219 359.375 15.625 281.925781 15.625 186.730469 C 15.625 184.15625 15.683594 181.585938 15.796875 179.015625 C 15.914062 176.445312 16.085938 173.878906 16.316406 171.316406 C 16.546875 168.753906 16.832031 166.199219 17.175781 163.648438 C 17.519531 161.097656 17.921875 158.558594 18.378906 156.023438 C 18.835938 153.492188 19.351562 150.972656 19.921875 148.464844 C 20.492188 145.953125 21.117188 143.460938 21.800781 140.980469 C 22.484375 138.496094 23.21875 136.035156 24.011719 133.585938 C 24.804688 131.136719 25.652344 128.707031 26.550781 126.296875 C 27.453125 123.886719 28.40625 121.5 29.414062 119.132812 C 30.421875 116.765625 31.480469 114.421875 32.59375 112.101562 C 33.707031 109.78125 34.867188 107.484375 36.082031 105.21875 C 37.296875 102.949219 38.5625 100.710938 39.878906 98.5 C 41.195312 96.289062 42.558594 94.105469 43.96875 91.957031 C 45.382812 89.804688 46.84375 87.6875 48.347656 85.601562 C 49.855469 83.515625 51.410156 81.464844 53.007812 79.449219 C 54.605469 77.433594 56.25 75.453125 57.9375 73.511719 C 59.625 71.570312 61.355469 69.664062 63.128906 67.800781 C 64.898438 65.9375 66.710938 64.109375 68.566406 62.328125 C 70.421875 60.542969 72.3125 58.800781 74.246094 57.101562 C 76.175781 55.402344 78.144531 53.746094 80.152344 52.136719 C 82.15625 50.523438 84.199219 48.957031 86.273438 47.4375 C 88.351562 45.917969 90.457031 44.445312 92.601562 43.019531 C 94.742188 41.59375 96.914062 40.214844 99.117188 38.886719 C 101.320312 37.558594 103.554688 36.277344 105.8125 35.050781 C 108.074219 33.820312 110.359375 32.644531 112.675781 31.515625 C 114.988281 30.390625 117.324219 29.316406 119.683594 28.292969 C 122.046875 27.269531 124.429688 26.300781 126.832031 25.386719 C 129.238281 24.46875 131.660156 23.605469 134.105469 22.800781 C 136.546875 21.992188 139.007812 21.238281 141.484375 20.542969 C 143.960938 19.84375 146.453125 19.203125 148.957031 18.617188 C 151.460938 18.03125 153.980469 17.5 156.507812 17.027344 C 159.039062 16.554688 161.574219 16.136719 164.125 15.777344 C 164.945312 15.660156 165.769531 15.613281 166.597656 15.628906 C 167.425781 15.644531 168.246094 15.726562 169.0625 15.875 C 169.875 16.019531 170.675781 16.230469 171.457031 16.503906 C 172.238281 16.777344 172.992188 17.113281 173.722656 17.507812 C 174.449219 17.902344 175.144531 18.351562 175.800781 18.855469 C 176.457031 19.359375 177.070312 19.910156 177.640625 20.511719 C 178.207031 21.113281 178.726562 21.757812 179.195312 22.441406 C 179.660156 23.125 180.070312 23.84375 180.421875 24.589844 C 180.777344 25.339844 181.066406 26.113281 181.296875 26.910156 C 181.527344 27.703125 181.695312 28.511719 181.796875 29.335938 C 181.898438 30.15625 181.933594 30.984375 181.902344 31.808594 C 181.875 32.636719 181.777344 33.457031 181.617188 34.269531 C 181.457031 35.082031 181.234375 35.878906 180.949219 36.65625 C 180.664062 37.433594 180.316406 38.183594 179.910156 38.90625 C 179.503906 39.625 179.042969 40.3125 178.53125 40.960938 C 178.015625 41.609375 177.453125 42.214844 176.839844 42.773438 C 174.035156 45.34375 171.371094 48.054688 168.847656 50.902344 C 166.320312 53.75 163.949219 56.722656 161.734375 59.816406 C 159.515625 62.910156 157.464844 66.109375 155.578125 69.414062 C 153.691406 72.71875 151.980469 76.113281 150.449219 79.597656 C 148.914062 83.082031 147.5625 86.632812 146.394531 90.257812 C 145.230469 93.878906 144.253906 97.550781 143.464844 101.277344 C 142.679688 105 142.085938 108.753906 141.691406 112.539062 C 141.292969 116.324219 141.089844 120.121094 141.085938 123.925781 C 141.085938 184.570312 190.429688 233.914062 251.074219 233.914062 C 254.878906 233.910156 258.675781 233.707031 262.460938 233.308594 C 266.246094 232.914062 270 232.320312 273.722656 231.535156 C 277.449219 230.746094 281.121094 229.769531 284.742188 228.605469 C 288.367188 227.4375 291.917969 226.085938 295.402344 224.550781 C 298.886719 223.019531 302.28125 221.308594 305.585938 219.421875 C 308.890625 217.535156 312.089844 215.484375 315.183594 213.265625 C 318.277344 211.050781 321.25 208.679688 324.097656 206.152344 C 326.945312 203.628906 329.65625 200.964844 332.226562 198.160156 C 332.785156 197.546875 333.390625 196.984375 334.039062 196.46875 C 334.6875 195.953125 335.375 195.496094 336.09375 195.089844 C 336.816406 194.683594 337.566406 194.335938 338.34375 194.050781 C 339.121094 193.761719 339.917969 193.539062 340.730469 193.378906 C 341.542969 193.21875 342.363281 193.125 343.191406 193.09375 C 344.019531 193.066406 344.84375 193.101562 345.664062 193.203125 C 346.488281 193.304688 347.296875 193.46875 348.09375 193.699219 C 348.886719 193.929688 349.660156 194.222656 350.410156 194.574219 C 351.160156 194.925781 351.875 195.335938 352.558594 195.804688 C 353.246094 196.269531 353.886719 196.789062 354.488281 197.359375 C 355.089844 197.929688 355.644531 198.542969 356.148438 199.199219 C 356.652344 199.855469 357.101562 200.546875 357.496094 201.277344 C 357.890625 202.007812 358.222656 202.761719 358.496094 203.542969 C 358.769531 204.324219 358.980469 205.125 359.128906 205.9375 C 359.273438 206.753906 359.355469 207.574219 359.375 208.402344 C 359.390625 209.230469 359.339844 210.054688 359.226562 210.875 C 358.863281 213.425781 358.449219 215.960938 357.972656 218.492188 C 357.5 221.019531 356.972656 223.539062 356.382812 226.042969 C 355.796875 228.546875 355.15625 231.039062 354.460938 233.515625 C 353.761719 235.992188 353.007812 238.453125 352.203125 240.894531 C 351.394531 243.339844 350.53125 245.761719 349.617188 248.167969 C 348.699219 250.570312 347.730469 252.953125 346.710938 255.316406 C 345.6875 257.675781 344.613281 260.011719 343.484375 262.324219 C 342.359375 264.640625 341.179688 266.925781 339.953125 269.1875 C 338.722656 271.445312 337.445312 273.679688 336.113281 275.882812 C 334.785156 278.085938 333.410156 280.257812 331.984375 282.398438 C 330.558594 284.542969 329.082031 286.648438 327.5625 288.726562 C 326.042969 290.800781 324.476562 292.84375 322.867188 294.847656 C 321.253906 296.855469 319.597656 298.824219 317.898438 300.753906 C 316.199219 302.6875 314.457031 304.578125 312.675781 306.433594 C 310.890625 308.289062 309.066406 310.101562 307.199219 311.871094 C 305.335938 313.644531 303.433594 315.375 301.488281 317.0625 C 299.546875 318.75 297.566406 320.394531 295.550781 321.992188 C 293.535156 323.589844 291.484375 325.144531 289.398438 326.652344 C 287.316406 328.15625 285.195312 329.617188 283.046875 331.03125 C 280.894531 332.441406 278.714844 333.804688 276.503906 335.121094 C 274.292969 336.4375 272.050781 337.703125 269.785156 338.917969 C 267.515625 340.132812 265.222656 341.292969 262.902344 342.40625 C 260.582031 343.519531 258.238281 344.578125 255.871094 345.585938 C 253.503906 346.59375 251.113281 347.546875 248.703125 348.449219 C 246.292969 349.351562 243.863281 350.195312 241.414062 350.988281 C 238.96875 351.78125 236.503906 352.515625 234.023438 353.199219 C 231.542969 353.882812 229.046875 354.507812 226.539062 355.078125 C 224.027344 355.648438 221.507812 356.164062 218.976562 356.621094 C 216.445312 357.078125 213.902344 357.480469 211.355469 357.824219 C 208.804688 358.167969 206.246094 358.453125 203.683594 358.683594 C 201.121094 358.914062 198.554688 359.085938 195.984375 359.203125 C 193.414062 359.316406 190.84375 359.375 188.269531 359.375 Z M 125.023438 60.300781 C 78.433594 83.773438 46.875 132.257812 46.875 186.730469 C 46.875 264.695312 110.304688 328.125 188.269531 328.125 C 242.742188 328.125 291.226562 296.566406 314.699219 249.976562 C 304.835938 254.960938 294.527344 258.734375 283.777344 261.300781 C 273.027344 263.867188 262.125 265.15625 251.074219 265.164062 C 173.195312 265.164062 109.832031 201.804688 109.832031 123.921875 C 109.84375 112.871094 111.128906 101.96875 113.699219 91.21875 C 116.265625 80.472656 120.039062 70.164062 125.023438 60.300781 Z M 125.023438 60.300781 " fill-opacity="1" fill-rule="nonzero"/></svg>