<svg xmlns="http://www.w3.org/2000/svg" xmlns:xlink="http://www.w3.org/1999/xlink" width="500" zoomAndPan="magnify" viewBox="0 0 375 374.999991" height="500" preserveAspectRatio="xMidYMid meet" version="1.0"><path fill="#1c1e1f" d="M 187.5 0 C 84 0 0 84 0 187.5 C 0 291 84 375 187.5 375 C 291 375 375 291 375 187.5 C 375 84 291 0 187.5 0 Z M 187.5 337.5 C 104.8125 337.5 37.5 270.1875 37.5 187.5 C 37.5 104.8125 104.8125 37.5 187.5 37.5 C 270.1875 37.5 337.5 104.8125 337.5 187.5 C 337.5 270.1875 270.1875 337.5 187.5 337.5 Z M 84.375 290.625 L 225.1875 225.1875 L 290.625 84.375 L 149.8125 149.8125 Z M 187.5 166.875 C 198.9375 166.875 208.125 176.0625 208.125 187.5 C 208.125 198.9375 198.9375 208.125 187.5 208.125 C 176.0625 208.125 166.875 198.9375 166.875 187.5 C 166.875 176.0625 176.0625 166.875 187.5 166.875 Z M 187.5 166.875 " fill-opacity="1" fill-rule="evenodd"/></svg>