<svg xmlns="http://www.w3.org/2000/svg" xmlns:xlink="http://www.w3.org/1999/xlink" width="500" zoomAndPan="magnify" viewBox="0 0 375 374.999991" height="500" preserveAspectRatio="xMidYMid meet" version="1.0"><path fill="#e9e9e9" d="M 187.5 0 C 84 0 0 84 0 187.5 C 0 291 84 375 187.5 375 C 291 375 375 291 375 187.5 C 375 84 291 0 187.5 0 Z M 37.5 187.5 C 37.5 104.625 104.625 37.5 187.5 37.5 C 222.1875 37.5 254.0625 49.3125 279.375 69.1875 L 69.1875 279.375 C 49.3125 254.0625 37.5 222.1875 37.5 187.5 Z M 187.5 337.5 C 152.8125 337.5 120.9375 325.6875 95.625 305.8125 L 305.8125 95.625 C 325.6875 120.9375 337.5 152.8125 337.5 187.5 C 337.5 270.375 270.375 337.5 187.5 337.5 Z M 187.5 337.5 " fill-opacity="1" fill-rule="evenodd"/></svg>