<svg xmlns="http://www.w3.org/2000/svg" xmlns:xlink="http://www.w3.org/1999/xlink" width="500" zoomAndPan="magnify" viewBox="0 0 375 374.999991" height="500" preserveAspectRatio="xMidYMid meet" version="1.0"><defs><clipPath id="d6b9936c18"><path d="M 4 5 L 371 5 L 371 370.734375 L 4 370.734375 Z M 4 5 " clip-rule="nonzero"/></clipPath></defs><g clip-path="url(#d6b9936c18)"><path fill="#e9e9e9" d="M 365.601562 151.113281 L 330.257812 121.042969 L 251.164062 53.644531 L 199.953125 10.050781 C 199.089844 9.324219 198.171875 8.675781 197.195312 8.109375 C 196.21875 7.542969 195.203125 7.066406 194.140625 6.679688 C 193.082031 6.292969 191.996094 6 190.886719 5.804688 C 189.773438 5.605469 188.65625 5.507812 187.527344 5.507812 C 186.398438 5.507812 185.277344 5.605469 184.167969 5.804688 C 183.054688 6 181.96875 6.292969 180.910156 6.679688 C 179.851562 7.066406 178.832031 7.542969 177.855469 8.109375 C 176.878906 8.675781 175.960938 9.324219 175.097656 10.050781 L 123.886719 53.644531 L 44.742188 121.042969 L 9.398438 151.113281 C 0 159.152344 5.800781 174.289062 18.328125 174.289062 L 44.742188 174.289062 L 44.742188 353.519531 C 44.742188 363.171875 52.789062 371.003906 62.707031 371.003906 L 154.21875 371.003906 L 154.21875 291.597656 C 154.21875 290.917969 154.25 290.238281 154.316406 289.5625 C 154.382812 288.886719 154.480469 288.214844 154.613281 287.546875 C 154.746094 286.878906 154.910156 286.21875 155.105469 285.570312 C 155.304688 284.917969 155.53125 284.277344 155.789062 283.648438 C 156.050781 283.023438 156.339844 282.40625 156.660156 281.808594 C 156.980469 281.207031 157.328125 280.625 157.707031 280.058594 C 158.085938 279.492188 158.488281 278.945312 158.917969 278.421875 C 159.351562 277.894531 159.804688 277.390625 160.285156 276.910156 C 160.769531 276.429688 161.269531 275.972656 161.796875 275.539062 C 162.320312 275.109375 162.867188 274.703125 163.433594 274.324219 C 163.996094 273.945312 164.582031 273.597656 165.179688 273.277344 C 165.78125 272.957031 166.394531 272.664062 167.023438 272.40625 C 167.648438 272.144531 168.289062 271.914062 168.941406 271.71875 C 169.589844 271.519531 170.25 271.355469 170.917969 271.222656 C 171.585938 271.089844 172.257812 270.988281 172.933594 270.921875 C 173.609375 270.855469 174.289062 270.824219 174.96875 270.824219 L 200.082031 270.824219 C 200.765625 270.824219 201.441406 270.855469 202.121094 270.921875 C 202.796875 270.988281 203.46875 271.085938 204.136719 271.21875 C 204.804688 271.351562 205.464844 271.515625 206.117188 271.714844 C 206.765625 271.910156 207.40625 272.140625 208.035156 272.398438 C 208.664062 272.660156 209.28125 272.949219 209.878906 273.269531 C 210.480469 273.59375 211.0625 273.941406 211.628906 274.320312 C 212.195312 274.699219 212.742188 275.101562 213.269531 275.535156 C 213.792969 275.964844 214.296875 276.421875 214.777344 276.902344 C 215.261719 277.382812 215.714844 277.886719 216.148438 278.414062 C 216.578125 278.941406 216.984375 279.488281 217.363281 280.050781 C 217.742188 280.617188 218.089844 281.203125 218.410156 281.800781 C 218.730469 282.402344 219.023438 283.015625 219.28125 283.644531 C 219.542969 284.273438 219.769531 284.914062 219.96875 285.566406 C 220.164062 286.21875 220.332031 286.875 220.460938 287.542969 C 220.59375 288.210938 220.695312 288.882812 220.761719 289.5625 C 220.828125 290.238281 220.859375 290.917969 220.859375 291.597656 L 220.859375 371.003906 L 312.292969 371.003906 C 322.210938 371.003906 330.253906 363.171875 330.253906 353.519531 L 330.253906 174.289062 L 356.671875 174.289062 C 369.203125 174.289062 374.996094 159.152344 365.601562 151.113281 Z M 365.601562 151.113281 " fill-opacity="1" fill-rule="nonzero"/></g></svg>