<svg xmlns="http://www.w3.org/2000/svg" xmlns:xlink="http://www.w3.org/1999/xlink" width="500" zoomAndPan="magnify" viewBox="0 0 375 374.999991" height="500" preserveAspectRatio="xMidYMid meet" version="1.0"><path fill="#e9e9e9" d="M 187.5 194.515625 C 237.699219 194.515625 278.535156 141.238281 278.535156 91.042969 C 278.535156 40.847656 237.699219 0 187.5 0 C 137.300781 0 96.460938 40.847656 96.460938 91.042969 C 96.472656 141.234375 137.304688 194.515625 187.5 194.515625 Z M 187.5 194.515625 " fill-opacity="1" fill-rule="nonzero"/><path fill="#e9e9e9" d="M 255.839844 195.449219 C 238.183594 208.902344 216.152344 216.910156 192.292969 216.910156 L 182.707031 216.910156 C 158.839844 216.910156 136.808594 208.898438 119.152344 195.449219 C 61.496094 204.769531 17.464844 254.746094 17.464844 315.027344 C 17.464844 348.144531 93.589844 375 187.5 375 C 281.402344 375 357.535156 348.144531 357.535156 315.027344 C 357.535156 254.746094 313.5 204.769531 255.839844 195.449219 Z M 255.839844 195.449219 " fill-opacity="1" fill-rule="nonzero"/></svg>