<svg xmlns="http://www.w3.org/2000/svg" xmlns:xlink="http://www.w3.org/1999/xlink" width="400" zoomAndPan="magnify" viewBox="0 0 300 112.499997" height="150" preserveAspectRatio="xMidYMid meet" version="1.0"><defs><g/><clipPath id="2831d089ae"><path d="M 61.03125 21.828125 L 74.960938 21.828125 L 74.960938 35.757812 L 61.03125 35.757812 Z M 61.03125 21.828125 " clip-rule="nonzero"/></clipPath><clipPath id="302ad322ea"><path d="M 67.996094 21.828125 C 64.148438 21.828125 61.03125 24.949219 61.03125 28.792969 C 61.03125 32.640625 64.148438 35.757812 67.996094 35.757812 C 71.839844 35.757812 74.960938 32.640625 74.960938 28.792969 C 74.960938 24.949219 71.839844 21.828125 67.996094 21.828125 Z M 67.996094 21.828125 " clip-rule="nonzero"/></clipPath><clipPath id="26f039bcbd"><path d="M 62.972656 23.769531 L 73.019531 23.769531 L 73.019531 33.816406 L 62.972656 33.816406 Z M 62.972656 23.769531 " clip-rule="nonzero"/></clipPath><clipPath id="13324aec74"><path d="M 67.996094 23.769531 C 65.21875 23.769531 62.972656 26.019531 62.972656 28.792969 C 62.972656 31.570312 65.21875 33.816406 67.996094 33.816406 C 70.769531 33.816406 73.019531 31.570312 73.019531 28.792969 C 73.019531 26.019531 70.769531 23.769531 67.996094 23.769531 Z M 67.996094 23.769531 " clip-rule="nonzero"/></clipPath></defs><g fill="#e9e9e9" fill-opacity="1"><g transform="translate(0.675388, 85.121675)"><g><path d="M 18.171875 -21.6875 L 18.171875 0 L 5.5 0 L 5.5 -61.546875 L 29.5 -61.546875 C 34.125 -61.546875 38.191406 -60.703125 41.703125 -59.015625 C 45.210938 -57.328125 47.910156 -54.925781 49.796875 -51.8125 C 51.679688 -48.695312 52.625 -45.148438 52.625 -41.171875 C 52.625 -35.140625 50.5625 -30.382812 46.4375 -26.90625 C 42.3125 -23.425781 36.597656 -21.6875 29.296875 -21.6875 Z M 18.171875 -31.953125 L 29.5 -31.953125 C 32.851562 -31.953125 35.410156 -32.738281 37.171875 -34.3125 C 38.941406 -35.894531 39.828125 -38.15625 39.828125 -41.09375 C 39.828125 -44.101562 38.9375 -46.535156 37.15625 -48.390625 C 35.382812 -50.253906 32.929688 -51.21875 29.796875 -51.28125 L 18.171875 -51.28125 Z M 18.171875 -31.953125 "/></g></g></g><g fill="#fdd200" fill-opacity="1"><g transform="translate(56.524821, 85.121675)"><g><path d="M 17.59375 0 L 5.328125 0 L 5.328125 -45.734375 L 17.59375 -45.734375 Z M 4.609375 -57.578125 C 4.609375 -59.410156 5.21875 -60.914062 6.4375 -62.09375 C 7.664062 -63.28125 9.335938 -63.875 11.453125 -63.875 C 13.535156 -63.875 15.195312 -63.28125 16.4375 -62.09375 C 17.6875 -60.914062 18.3125 -59.410156 18.3125 -57.578125 C 18.3125 -55.710938 17.679688 -54.1875 16.421875 -53 C 15.171875 -51.820312 13.515625 -51.234375 11.453125 -51.234375 C 9.398438 -51.234375 7.742188 -51.820312 6.484375 -53 C 5.234375 -54.1875 4.609375 -55.710938 4.609375 -57.578125 Z M 4.609375 -57.578125 "/></g></g></g><g fill="#e9e9e9" fill-opacity="1"><g transform="translate(79.485273, 85.121675)"><g><path d="M 23.71875 -9 C 25.96875 -9 27.796875 -9.617188 29.203125 -10.859375 C 30.617188 -12.097656 31.351562 -13.75 31.40625 -15.8125 L 42.859375 -15.8125 C 42.835938 -12.707031 41.992188 -9.863281 40.328125 -7.28125 C 38.660156 -4.707031 36.382812 -2.707031 33.5 -1.28125 C 30.613281 0.132812 27.421875 0.84375 23.921875 0.84375 C 17.390625 0.84375 12.234375 -1.234375 8.453125 -5.390625 C 4.679688 -9.546875 2.796875 -15.285156 2.796875 -22.609375 L 2.796875 -23.421875 C 2.796875 -30.460938 4.664062 -36.082031 8.40625 -40.28125 C 12.15625 -44.488281 17.300781 -46.59375 23.84375 -46.59375 C 29.5625 -46.59375 34.144531 -44.960938 37.59375 -41.703125 C 41.050781 -38.453125 42.804688 -34.117188 42.859375 -28.703125 L 31.40625 -28.703125 C 31.351562 -31.066406 30.617188 -32.988281 29.203125 -34.46875 C 27.796875 -35.945312 25.9375 -36.6875 23.625 -36.6875 C 20.78125 -36.6875 18.628906 -35.648438 17.171875 -33.578125 C 15.722656 -31.515625 15 -28.15625 15 -23.5 L 15 -22.234375 C 15 -17.523438 15.71875 -14.140625 17.15625 -12.078125 C 18.59375 -10.023438 20.78125 -9 23.71875 -9 Z M 23.71875 -9 "/></g></g></g><g fill="#e9e9e9" fill-opacity="1"><g transform="translate(124.635409, 85.121675)"><g><path d="M 55.59375 0 L 42.90625 0 L 42.90625 -26.375 L 18.171875 -26.375 L 18.171875 0 L 5.5 0 L 5.5 -61.546875 L 18.171875 -61.546875 L 18.171875 -36.609375 L 42.90625 -36.609375 L 42.90625 -61.546875 L 55.59375 -61.546875 Z M 55.59375 0 "/></g></g></g><g fill="#e9e9e9" fill-opacity="1"><g transform="translate(185.807932, 85.121675)"><g><path d="M 17.59375 0 L 5.328125 0 L 5.328125 -45.734375 L 17.59375 -45.734375 Z M 4.609375 -57.578125 C 4.609375 -59.410156 5.21875 -60.914062 6.4375 -62.09375 C 7.664062 -63.28125 9.335938 -63.875 11.453125 -63.875 C 13.535156 -63.875 15.195312 -63.28125 16.4375 -62.09375 C 17.6875 -60.914062 18.3125 -59.410156 18.3125 -57.578125 C 18.3125 -55.710938 17.679688 -54.1875 16.421875 -53 C 15.171875 -51.820312 13.515625 -51.234375 11.453125 -51.234375 C 9.398438 -51.234375 7.742188 -51.820312 6.484375 -53 C 5.234375 -54.1875 4.609375 -55.710938 4.609375 -57.578125 Z M 4.609375 -57.578125 "/></g></g></g><g fill="#e9e9e9" fill-opacity="1"><g transform="translate(208.763485, 85.121675)"><g><path d="M 21.8125 -14.921875 L 30.3125 -45.734375 L 43.078125 -45.734375 L 27.640625 0 L 15.984375 0 L 0.546875 -45.734375 L 13.3125 -45.734375 Z M 21.8125 -14.921875 "/></g></g></g><g fill="#e9e9e9" fill-opacity="1"><g transform="translate(252.518538, 85.121675)"><g><path d="M 25.75 0.84375 C 19.039062 0.84375 13.578125 -1.210938 9.359375 -5.328125 C 5.148438 -9.441406 3.046875 -14.921875 3.046875 -21.765625 L 3.046875 -22.953125 C 3.046875 -27.546875 3.929688 -31.648438 5.703125 -35.265625 C 7.484375 -38.890625 10 -41.679688 13.25 -43.640625 C 16.507812 -45.609375 20.222656 -46.59375 24.390625 -46.59375 C 30.648438 -46.59375 35.578125 -44.617188 39.171875 -40.671875 C 42.765625 -36.722656 44.5625 -31.128906 44.5625 -23.890625 L 44.5625 -18.890625 L 15.4375 -18.890625 C 15.820312 -15.910156 17.007812 -13.515625 19 -11.703125 C 20.988281 -9.898438 23.503906 -9 26.546875 -9 C 31.253906 -9 34.929688 -10.707031 37.578125 -14.125 L 43.578125 -7.390625 C 41.753906 -4.804688 39.273438 -2.785156 36.140625 -1.328125 C 33.015625 0.117188 29.550781 0.84375 25.75 0.84375 Z M 24.34375 -36.6875 C 21.925781 -36.6875 19.960938 -35.867188 18.453125 -34.234375 C 16.941406 -32.609375 15.976562 -30.269531 15.5625 -27.21875 L 32.546875 -27.21875 L 32.546875 -28.203125 C 32.492188 -30.898438 31.757812 -32.988281 30.34375 -34.46875 C 28.9375 -35.945312 26.9375 -36.6875 24.34375 -36.6875 Z M 24.34375 -36.6875 "/></g></g></g><g clip-path="url(#2831d089ae)"><g clip-path="url(#302ad322ea)"><path fill="#e9e9e9" d="M 61.03125 21.828125 L 74.960938 21.828125 L 74.960938 35.757812 L 61.03125 35.757812 Z M 61.03125 21.828125 " fill-opacity="1" fill-rule="nonzero"/></g></g><g clip-path="url(#26f039bcbd)"><g clip-path="url(#13324aec74)"><path fill="#fdd200" d="M 62.972656 23.769531 L 73.019531 23.769531 L 73.019531 33.816406 L 62.972656 33.816406 Z M 62.972656 23.769531 " fill-opacity="1" fill-rule="nonzero"/></g></g></svg>