<svg xmlns="http://www.w3.org/2000/svg" xmlns:xlink="http://www.w3.org/1999/xlink" width="500" zoomAndPan="magnify" viewBox="0 0 375 374.999991" height="500" preserveAspectRatio="xMidYMid meet" version="1.0"><path fill="#fdd200" d="M 187.5 375 C 184.429688 375 181.363281 374.925781 178.300781 374.773438 C 175.234375 374.625 172.175781 374.398438 169.121094 374.097656 C 166.066406 373.796875 163.023438 373.421875 159.988281 372.96875 C 156.953125 372.519531 153.929688 371.996094 150.921875 371.398438 C 147.910156 370.796875 144.917969 370.125 141.941406 369.378906 C 138.964844 368.636719 136.007812 367.816406 133.070312 366.925781 C 130.136719 366.035156 127.222656 365.074219 124.332031 364.039062 C 121.445312 363.003906 118.582031 361.902344 115.746094 360.726562 C 112.910156 359.554688 110.105469 358.308594 107.332031 356.996094 C 104.558594 355.6875 101.820312 354.308594 99.113281 352.859375 C 96.40625 351.414062 93.738281 349.902344 91.105469 348.324219 C 88.472656 346.746094 85.882812 345.105469 83.332031 343.402344 C 80.777344 341.695312 78.269531 339.929688 75.804688 338.101562 C 73.339844 336.273438 70.921875 334.386719 68.550781 332.4375 C 66.179688 330.492188 63.855469 328.488281 61.582031 326.429688 C 59.308594 324.367188 57.085938 322.253906 54.917969 320.082031 C 52.746094 317.914062 50.632812 315.691406 48.570312 313.417969 C 46.511719 311.144531 44.507812 308.820312 42.558594 306.449219 C 40.613281 304.078125 38.726562 301.660156 36.898438 299.195312 C 35.070312 296.730469 33.304688 294.222656 31.597656 291.667969 C 29.894531 289.117188 28.253906 286.527344 26.675781 283.894531 C 25.097656 281.261719 23.585938 278.59375 22.140625 275.886719 C 20.691406 273.179688 19.3125 270.441406 18.003906 267.667969 C 16.691406 264.894531 15.445312 262.089844 14.273438 259.253906 C 13.097656 256.417969 11.996094 253.554688 10.960938 250.667969 C 9.925781 247.777344 8.964844 244.863281 8.074219 241.929688 C 7.183594 238.992188 6.363281 236.035156 5.621094 233.058594 C 4.875 230.082031 4.203125 227.089844 3.601562 224.078125 C 3.003906 221.070312 2.480469 218.046875 2.03125 215.011719 C 1.578125 211.976562 1.203125 208.933594 0.902344 205.878906 C 0.601562 202.824219 0.375 199.765625 0.226562 196.699219 C 0.0742188 193.636719 0 190.570312 0 187.5 C 0 184.429688 0.0742188 181.363281 0.226562 178.300781 C 0.375 175.234375 0.601562 172.175781 0.902344 169.121094 C 1.203125 166.066406 1.578125 163.023438 2.03125 159.988281 C 2.480469 156.953125 3.003906 153.929688 3.601562 150.921875 C 4.203125 147.910156 4.875 144.917969 5.621094 141.941406 C 6.363281 138.964844 7.183594 136.007812 8.074219 133.070312 C 8.964844 130.136719 9.925781 127.222656 10.960938 124.332031 C 11.996094 121.445312 13.097656 118.582031 14.273438 115.746094 C 15.445312 112.910156 16.691406 110.105469 18.003906 107.332031 C 19.3125 104.558594 20.691406 101.820312 22.140625 99.113281 C 23.585938 96.40625 25.097656 93.738281 26.675781 91.105469 C 28.253906 88.472656 29.894531 85.882812 31.597656 83.332031 C 33.304688 80.777344 35.070312 78.269531 36.898438 75.804688 C 38.726562 73.339844 40.613281 70.921875 42.558594 68.550781 C 44.507812 66.179688 46.511719 63.855469 48.570312 61.582031 C 50.632812 59.308594 52.746094 57.085938 54.917969 54.917969 C 57.085938 52.746094 59.308594 50.632812 61.582031 48.570312 C 63.855469 46.511719 66.179688 44.507812 68.550781 42.558594 C 70.921875 40.613281 73.339844 38.726562 75.804688 36.898438 C 78.269531 35.070312 80.777344 33.304688 83.332031 31.597656 C 85.882812 29.894531 88.472656 28.253906 91.105469 26.675781 C 93.738281 25.097656 96.40625 23.585938 99.113281 22.140625 C 101.820312 20.691406 104.558594 19.3125 107.332031 18.003906 C 110.105469 16.691406 112.910156 15.445312 115.746094 14.273438 C 118.582031 13.097656 121.445312 11.996094 124.332031 10.960938 C 127.222656 9.925781 130.136719 8.964844 133.070312 8.074219 C 136.007812 7.183594 138.964844 6.363281 141.941406 5.617188 C 144.917969 4.875 147.910156 4.203125 150.921875 3.601562 C 153.929688 3.003906 156.953125 2.480469 159.988281 2.03125 C 163.023438 1.578125 166.066406 1.203125 169.121094 0.902344 C 172.175781 0.601562 175.234375 0.375 178.300781 0.226562 C 181.363281 0.0742188 184.429688 0 187.5 0 C 190.570312 0 193.636719 0.0742188 196.699219 0.226562 C 199.765625 0.375 202.824219 0.601562 205.878906 0.902344 C 208.933594 1.203125 211.976562 1.578125 215.011719 2.03125 C 218.046875 2.480469 221.070312 3.003906 224.078125 3.601562 C 227.089844 4.203125 230.082031 4.875 233.058594 5.617188 C 236.035156 6.363281 238.992188 7.183594 241.929688 8.074219 C 244.863281 8.964844 247.777344 9.925781 250.667969 10.960938 C 253.554688 11.996094 256.417969 13.097656 259.253906 14.273438 C 262.089844 15.445312 264.894531 16.691406 267.667969 18.003906 C 270.441406 19.3125 273.179688 20.691406 275.886719 22.140625 C 278.59375 23.585938 281.261719 25.097656 283.894531 26.675781 C 286.527344 28.253906 289.117188 29.894531 291.667969 31.597656 C 294.222656 33.304688 296.730469 35.070312 299.195312 36.898438 C 301.660156 38.726562 304.078125 40.613281 306.449219 42.558594 C 308.820312 44.507812 311.144531 46.511719 313.417969 48.570312 C 315.691406 50.632812 317.914062 52.746094 320.082031 54.917969 C 322.253906 57.085938 324.367188 59.308594 326.429688 61.582031 C 328.488281 63.855469 330.492188 66.179688 332.441406 68.550781 C 334.386719 70.921875 336.273438 73.339844 338.101562 75.804688 C 339.929688 78.269531 341.695312 80.777344 343.402344 83.332031 C 345.105469 85.882812 346.746094 88.472656 348.324219 91.105469 C 349.902344 93.738281 351.414062 96.40625 352.859375 99.113281 C 354.308594 101.820312 355.6875 104.558594 356.996094 107.332031 C 358.308594 110.105469 359.554688 112.910156 360.726562 115.746094 C 361.902344 118.582031 363.003906 121.445312 364.039062 124.332031 C 365.074219 127.222656 366.035156 130.136719 366.925781 133.070312 C 367.816406 136.007812 368.636719 138.964844 369.378906 141.941406 C 370.125 144.917969 370.796875 147.910156 371.398438 150.921875 C 371.996094 153.929688 372.519531 156.953125 372.96875 159.988281 C 373.421875 163.023438 373.796875 166.066406 374.097656 169.121094 C 374.398438 172.175781 374.625 175.234375 374.773438 178.300781 C 374.925781 181.363281 375 184.429688 375 187.5 C 375 190.570312 374.925781 193.636719 374.773438 196.699219 C 374.625 199.765625 374.398438 202.824219 374.097656 205.878906 C 373.796875 208.933594 373.421875 211.976562 372.96875 215.011719 C 372.519531 218.046875 371.996094 221.070312 371.398438 224.078125 C 370.796875 227.089844 370.125 230.082031 369.378906 233.058594 C 368.636719 236.035156 367.816406 238.992188 366.925781 241.929688 C 366.035156 244.863281 365.074219 247.777344 364.039062 250.667969 C 363.003906 253.554688 361.902344 256.417969 360.726562 259.253906 C 359.554688 262.089844 358.308594 264.894531 356.996094 267.667969 C 355.6875 270.441406 354.308594 273.179688 352.859375 275.886719 C 351.414062 278.59375 349.902344 281.261719 348.324219 283.894531 C 346.746094 286.527344 345.105469 289.117188 343.402344 291.667969 C 341.695312 294.222656 339.929688 296.730469 338.101562 299.195312 C 336.273438 301.660156 334.386719 304.078125 332.4375 306.449219 C 330.492188 308.820312 328.488281 311.144531 326.429688 313.417969 C 324.367188 315.691406 322.253906 317.914062 320.082031 320.082031 C 317.914062 322.253906 315.691406 324.367188 313.417969 326.429688 C 311.144531 328.488281 308.820312 330.492188 306.449219 332.441406 C 304.078125 334.386719 301.660156 336.273438 299.195312 338.101562 C 296.730469 339.929688 294.222656 341.695312 291.667969 343.402344 C 289.117188 345.105469 286.527344 346.746094 283.894531 348.324219 C 281.261719 349.902344 278.59375 351.414062 275.886719 352.859375 C 273.179688 354.308594 270.441406 355.6875 267.667969 356.996094 C 264.894531 358.308594 262.089844 359.554688 259.253906 360.726562 C 256.417969 361.902344 253.554688 363.003906 250.667969 364.039062 C 247.777344 365.074219 244.863281 366.035156 241.929688 366.925781 C 238.992188 367.816406 236.035156 368.636719 233.058594 369.378906 C 230.082031 370.125 227.089844 370.796875 224.078125 371.398438 C 221.070312 371.996094 218.046875 372.519531 215.011719 372.96875 C 211.976562 373.421875 208.933594 373.796875 205.878906 374.097656 C 202.824219 374.398438 199.765625 374.625 196.699219 374.773438 C 193.636719 374.925781 190.570312 375 187.5 375 Z M 187.5 31.230469 C 184.941406 31.230469 182.386719 31.292969 179.832031 31.417969 C 177.277344 31.542969 174.726562 31.730469 172.183594 31.984375 C 169.636719 32.234375 167.101562 32.546875 164.570312 32.921875 C 162.039062 33.296875 159.523438 33.734375 157.011719 34.234375 C 154.503906 34.730469 152.011719 35.292969 149.53125 35.914062 C 147.046875 36.535156 144.585938 37.21875 142.136719 37.960938 C 139.691406 38.703125 137.261719 39.503906 134.855469 40.367188 C 132.445312 41.226562 130.0625 42.148438 127.699219 43.125 C 125.335938 44.105469 123 45.140625 120.6875 46.234375 C 118.375 47.328125 116.089844 48.476562 113.835938 49.683594 C 111.578125 50.886719 109.355469 52.148438 107.160156 53.464844 C 104.96875 54.777344 102.808594 56.144531 100.679688 57.566406 C 98.554688 58.988281 96.464844 60.460938 94.410156 61.984375 C 92.355469 63.507812 90.339844 65.078125 88.363281 66.703125 C 86.386719 68.324219 84.449219 69.996094 82.554688 71.710938 C 80.660156 73.429688 78.808594 75.191406 77 77 C 75.191406 78.808594 73.429688 80.660156 71.710938 82.554688 C 69.996094 84.449219 68.324219 86.386719 66.703125 88.363281 C 65.078125 90.339844 63.507812 92.355469 61.984375 94.410156 C 60.460938 96.464844 58.988281 98.554688 57.566406 100.679688 C 56.144531 102.808594 54.777344 104.96875 53.464844 107.160156 C 52.148438 109.355469 50.886719 111.578125 49.683594 113.835938 C 48.476562 116.089844 47.328125 118.375 46.234375 120.6875 C 45.140625 123 44.105469 125.335938 43.125 127.699219 C 42.148438 130.0625 41.226562 132.445312 40.367188 134.855469 C 39.503906 137.261719 38.703125 139.691406 37.960938 142.136719 C 37.21875 144.585938 36.535156 147.046875 35.914062 149.53125 C 35.292969 152.011719 34.730469 154.503906 34.234375 157.011719 C 33.734375 159.523438 33.296875 162.039062 32.921875 164.570312 C 32.546875 167.101562 32.234375 169.636719 31.984375 172.183594 C 31.730469 174.726562 31.542969 177.277344 31.417969 179.832031 C 31.292969 182.386719 31.230469 184.941406 31.230469 187.5 C 31.230469 190.058594 31.292969 192.613281 31.417969 195.167969 C 31.542969 197.722656 31.730469 200.273438 31.984375 202.816406 C 32.234375 205.363281 32.546875 207.898438 32.921875 210.429688 C 33.296875 212.960938 33.734375 215.476562 34.234375 217.988281 C 34.730469 220.496094 35.292969 222.988281 35.914062 225.46875 C 36.535156 227.953125 37.21875 230.414062 37.960938 232.863281 C 38.703125 235.308594 39.503906 237.738281 40.367188 240.144531 C 41.226562 242.554688 42.148438 244.9375 43.125 247.300781 C 44.105469 249.664062 45.140625 252 46.234375 254.3125 C 47.328125 256.625 48.476562 258.910156 49.683594 261.164062 C 50.886719 263.421875 52.148438 265.644531 53.464844 267.839844 C 54.777344 270.03125 56.144531 272.191406 57.566406 274.320312 C 58.988281 276.445312 60.460938 278.535156 61.984375 280.589844 C 63.507812 282.644531 65.078125 284.660156 66.703125 286.636719 C 68.324219 288.613281 69.996094 290.550781 71.710938 292.445312 C 73.429688 294.339844 75.191406 296.191406 77 298 C 78.808594 299.808594 80.660156 301.570312 82.554688 303.289062 C 84.449219 305.003906 86.386719 306.675781 88.363281 308.296875 C 90.339844 309.921875 92.355469 311.492188 94.410156 313.015625 C 96.464844 314.539062 98.554688 316.011719 100.679688 317.433594 C 102.808594 318.855469 104.96875 320.222656 107.160156 321.535156 C 109.355469 322.851562 111.578125 324.113281 113.835938 325.316406 C 116.089844 326.523438 118.375 327.671875 120.6875 328.765625 C 123 329.859375 125.335938 330.894531 127.699219 331.875 C 130.0625 332.851562 132.445312 333.773438 134.855469 334.632812 C 137.261719 335.496094 139.691406 336.296875 142.136719 337.039062 C 144.585938 337.78125 147.046875 338.464844 149.53125 339.085938 C 152.011719 339.707031 154.503906 340.269531 157.011719 340.765625 C 159.523438 341.265625 162.039062 341.703125 164.570312 342.078125 C 167.101562 342.453125 169.636719 342.765625 172.183594 343.015625 C 174.726562 343.269531 177.277344 343.457031 179.832031 343.582031 C 182.386719 343.707031 184.941406 343.769531 187.5 343.769531 C 190.058594 343.769531 192.613281 343.707031 195.167969 343.582031 C 197.722656 343.457031 200.273438 343.269531 202.816406 343.015625 C 205.363281 342.765625 207.898438 342.453125 210.429688 342.078125 C 212.960938 341.703125 215.476562 341.265625 217.988281 340.765625 C 220.496094 340.269531 222.988281 339.707031 225.46875 339.085938 C 227.953125 338.464844 230.414062 337.78125 232.863281 337.039062 C 235.308594 336.296875 237.738281 335.496094 240.144531 334.632812 C 242.554688 333.773438 244.9375 332.851562 247.300781 331.875 C 249.664062 330.894531 252 329.859375 254.3125 328.765625 C 256.625 327.671875 258.910156 326.523438 261.164062 325.316406 C 263.421875 324.113281 265.644531 322.851562 267.839844 321.535156 C 270.03125 320.222656 272.191406 318.855469 274.320312 317.433594 C 276.445312 316.011719 278.535156 314.539062 280.589844 313.015625 C 282.644531 311.492188 284.660156 309.921875 286.636719 308.296875 C 288.613281 306.675781 290.550781 305.003906 292.445312 303.289062 C 294.339844 301.570312 296.191406 299.808594 298 298 C 299.808594 296.191406 301.570312 294.339844 303.289062 292.445312 C 305.003906 290.550781 306.675781 288.613281 308.296875 286.636719 C 309.921875 284.660156 311.492188 282.644531 313.015625 280.589844 C 314.539062 278.535156 316.011719 276.445312 317.433594 274.320312 C 318.855469 272.191406 320.222656 270.03125 321.535156 267.839844 C 322.851562 265.644531 324.113281 263.421875 325.316406 261.164062 C 326.523438 258.910156 327.671875 256.625 328.765625 254.3125 C 329.859375 252 330.894531 249.664062 331.875 247.300781 C 332.851562 244.9375 333.773438 242.554688 334.632812 240.144531 C 335.496094 237.738281 336.296875 235.308594 337.039062 232.863281 C 337.78125 230.414062 338.464844 227.953125 339.085938 225.46875 C 339.707031 222.988281 340.269531 220.496094 340.765625 217.988281 C 341.265625 215.476562 341.703125 212.960938 342.078125 210.429688 C 342.453125 207.898438 342.765625 205.363281 343.015625 202.816406 C 343.269531 200.273438 343.457031 197.722656 343.582031 195.167969 C 343.707031 192.613281 343.769531 190.058594 343.769531 187.5 C 343.765625 184.945312 343.699219 182.390625 343.570312 179.835938 C 343.441406 177.28125 343.25 174.734375 342.996094 172.191406 C 342.742188 169.644531 342.425781 167.109375 342.046875 164.582031 C 341.667969 162.054688 341.230469 159.535156 340.726562 157.03125 C 340.226562 154.523438 339.664062 152.03125 339.039062 149.550781 C 338.417969 147.070312 337.734375 144.609375 336.988281 142.164062 C 336.242188 139.71875 335.441406 137.292969 334.578125 134.886719 C 333.714844 132.480469 332.792969 130.09375 331.8125 127.734375 C 330.832031 125.375 329.792969 123.039062 328.699219 120.726562 C 327.605469 118.417969 326.453125 116.136719 325.25 113.882812 C 324.042969 111.628906 322.78125 109.40625 321.464844 107.210938 C 320.152344 105.019531 318.78125 102.863281 317.363281 100.738281 C 315.941406 98.613281 314.46875 96.523438 312.945312 94.46875 C 311.421875 92.417969 309.847656 90.402344 308.226562 88.425781 C 306.605469 86.449219 304.933594 84.515625 303.21875 82.621094 C 301.5 80.726562 299.738281 78.875 297.929688 77.070312 C 296.125 75.261719 294.273438 73.5 292.378906 71.78125 C 290.484375 70.066406 288.550781 68.394531 286.574219 66.773438 C 284.597656 65.152344 282.582031 63.578125 280.53125 62.054688 C 278.476562 60.53125 276.386719 59.058594 274.261719 57.636719 C 272.136719 56.21875 269.980469 54.847656 267.789062 53.535156 C 265.59375 52.21875 263.371094 50.957031 261.117188 49.75 C 258.863281 48.546875 256.582031 47.394531 254.273438 46.300781 C 251.960938 45.207031 249.625 44.167969 247.265625 43.1875 C 244.902344 42.207031 242.519531 41.285156 240.113281 40.421875 C 237.707031 39.558594 235.28125 38.757812 232.835938 38.011719 C 230.390625 37.265625 227.929688 36.582031 225.449219 35.960938 C 222.96875 35.335938 220.476562 34.773438 217.96875 34.273438 C 215.464844 33.769531 212.945312 33.332031 210.417969 32.953125 C 207.890625 32.574219 205.355469 32.257812 202.808594 32.003906 C 200.265625 31.75 197.71875 31.558594 195.164062 31.429688 C 192.609375 31.300781 190.054688 31.234375 187.5 31.230469 Z M 187.5 31.230469 " fill-opacity="1" fill-rule="nonzero"/><path fill="#fdd200" d="M 187.5 265.605469 C 186.476562 265.605469 185.460938 265.503906 184.457031 265.304688 C 183.449219 265.105469 182.472656 264.8125 181.527344 264.421875 C 180.578125 264.027344 179.679688 263.550781 178.828125 262.980469 C 177.972656 262.414062 177.183594 261.765625 176.457031 261.042969 C 175.730469 260.320312 175.082031 259.535156 174.511719 258.683594 C 173.941406 257.832031 173.457031 256.933594 173.0625 255.988281 C 172.667969 255.042969 172.371094 254.066406 172.167969 253.0625 C 171.960938 252.058594 171.859375 251.042969 171.855469 250.019531 C 171.917969 246.511719 172.199219 243.023438 172.703125 239.550781 C 173.210938 236.078125 173.933594 232.652344 174.875 229.273438 C 175.816406 225.894531 176.96875 222.589844 178.332031 219.355469 C 179.695312 216.125 181.257812 212.992188 183.019531 209.957031 C 184.78125 206.925781 186.726562 204.015625 188.859375 201.230469 C 190.992188 198.445312 193.292969 195.804688 195.761719 193.3125 C 198.230469 190.820312 200.847656 188.492188 203.613281 186.335938 C 206.378906 184.175781 209.269531 182.199219 212.285156 180.410156 C 213.328125 179.761719 214.34375 179.074219 215.335938 178.347656 C 216.324219 177.621094 217.28125 176.855469 218.210938 176.054688 C 219.140625 175.25 220.039062 174.410156 220.902344 173.539062 C 221.765625 172.664062 222.59375 171.761719 223.386719 170.820312 C 224.175781 169.882812 224.929688 168.914062 225.648438 167.917969 C 226.363281 166.921875 227.039062 165.898438 227.675781 164.847656 C 228.3125 163.796875 228.90625 162.722656 229.457031 161.625 C 230.007812 160.527344 230.515625 159.410156 230.976562 158.273438 C 231.441406 157.136719 231.859375 155.980469 232.230469 154.8125 C 232.605469 153.640625 232.929688 152.457031 233.210938 151.261719 C 233.492188 150.066406 233.722656 148.863281 233.910156 147.648438 C 234.09375 146.433594 234.230469 145.214844 234.320312 143.992188 C 234.410156 142.765625 234.449219 141.539062 234.445312 140.3125 C 234.4375 139.082031 234.382812 137.859375 234.277344 136.632812 C 234.175781 135.410156 234.023438 134.191406 233.824219 132.980469 C 233.625 131.769531 233.378906 130.566406 233.085938 129.375 C 232.753906 127.992188 232.359375 126.625 231.90625 125.273438 C 231.449219 123.925781 230.933594 122.601562 230.355469 121.300781 C 229.777344 119.996094 229.144531 118.726562 228.453125 117.480469 C 227.757812 116.238281 227.011719 115.027344 226.207031 113.851562 C 225.40625 112.675781 224.550781 111.539062 223.644531 110.441406 C 222.738281 109.34375 221.78125 108.289062 220.78125 107.277344 C 219.777344 106.265625 218.730469 105.304688 217.640625 104.386719 C 216.550781 103.472656 215.421875 102.609375 214.25 101.796875 C 213.082031 100.984375 211.878906 100.226562 210.640625 99.523438 C 209.402344 98.820312 208.132812 98.175781 206.835938 97.585938 C 205.539062 97 204.21875 96.472656 202.875 96.007812 C 201.53125 95.539062 200.167969 95.132812 198.785156 94.792969 C 197.402344 94.449219 196.007812 94.167969 194.601562 93.953125 C 193.195312 93.738281 191.777344 93.585938 190.359375 93.5 C 188.9375 93.414062 187.515625 93.390625 186.089844 93.433594 C 184.667969 93.476562 183.25 93.582031 181.835938 93.753906 C 180.421875 93.925781 179.019531 94.164062 177.628906 94.464844 C 176.238281 94.761719 174.863281 95.125 173.503906 95.550781 C 172.144531 95.976562 170.808594 96.460938 169.492188 97.007812 C 168.179688 97.554688 166.890625 98.160156 165.632812 98.824219 C 164.375 99.488281 163.148438 100.210938 161.953125 100.984375 C 160.757812 101.761719 159.601562 102.589844 158.484375 103.472656 C 157.367188 104.351562 156.289062 105.28125 155.257812 106.261719 C 154.222656 107.242188 153.238281 108.265625 152.296875 109.335938 C 151.355469 110.402344 150.46875 111.511719 149.628906 112.664062 C 148.789062 113.8125 148.003906 115 147.273438 116.222656 C 146.542969 117.445312 145.867188 118.695312 145.25 119.980469 C 144.632812 121.261719 144.078125 122.570312 143.578125 123.90625 C 143.082031 125.238281 142.644531 126.59375 142.273438 127.964844 C 141.898438 129.339844 141.585938 130.726562 141.339844 132.128906 C 141.089844 133.53125 140.90625 134.941406 140.789062 136.359375 C 140.667969 137.78125 140.613281 139.203125 140.625 140.625 C 140.65625 141.15625 140.664062 141.6875 140.640625 142.21875 C 140.621094 142.75 140.570312 143.28125 140.496094 143.808594 C 140.417969 144.335938 140.316406 144.855469 140.1875 145.375 C 140.058594 145.890625 139.902344 146.398438 139.722656 146.898438 C 139.542969 147.398438 139.335938 147.890625 139.105469 148.371094 C 138.875 148.847656 138.621094 149.316406 138.339844 149.769531 C 138.0625 150.222656 137.761719 150.660156 137.4375 151.085938 C 137.113281 151.507812 136.769531 151.914062 136.40625 152.300781 C 136.039062 152.6875 135.65625 153.058594 135.253906 153.40625 C 134.851562 153.753906 134.433594 154.082031 133.996094 154.386719 C 133.5625 154.691406 133.113281 154.976562 132.648438 155.234375 C 132.183594 155.496094 131.707031 155.730469 131.21875 155.941406 C 130.726562 156.152344 130.230469 156.339844 129.722656 156.5 C 129.214844 156.660156 128.699219 156.792969 128.179688 156.902344 C 127.65625 157.011719 127.132812 157.089844 126.601562 157.144531 C 126.074219 157.199219 125.542969 157.226562 125.011719 157.226562 C 124.476562 157.226562 123.945312 157.199219 123.417969 157.144531 C 122.886719 157.089844 122.363281 157.011719 121.839844 156.902344 C 121.320312 156.792969 120.804688 156.660156 120.296875 156.5 C 119.789062 156.339844 119.292969 156.152344 118.800781 155.941406 C 118.3125 155.730469 117.835938 155.496094 117.371094 155.234375 C 116.90625 154.976562 116.457031 154.691406 116.023438 154.386719 C 115.585938 154.082031 115.167969 153.753906 114.765625 153.40625 C 114.363281 153.058594 113.980469 152.6875 113.613281 152.300781 C 113.25 151.914062 112.90625 151.507812 112.582031 151.085938 C 112.257812 150.660156 111.957031 150.222656 111.679688 149.769531 C 111.398438 149.316406 111.144531 148.847656 110.914062 148.371094 C 110.683594 147.890625 110.476562 147.398438 110.296875 146.898438 C 110.117188 146.398438 109.960938 145.890625 109.832031 145.375 C 109.703125 144.855469 109.601562 144.335938 109.523438 143.808594 C 109.449219 143.28125 109.398438 142.75 109.378906 142.21875 C 109.355469 141.6875 109.363281 141.15625 109.394531 140.625 C 109.386719 137.699219 109.539062 134.785156 109.859375 131.878906 C 110.179688 128.96875 110.660156 126.089844 111.304688 123.238281 C 111.949219 120.382812 112.75 117.578125 113.710938 114.8125 C 114.667969 112.050781 115.78125 109.351562 117.046875 106.714844 C 118.308594 104.078125 119.71875 101.519531 121.269531 99.039062 C 122.824219 96.5625 124.511719 94.179688 126.332031 91.890625 C 128.152344 89.601562 130.097656 87.421875 132.164062 85.351562 C 134.230469 83.28125 136.40625 81.335938 138.691406 79.511719 C 141.011719 77.664062 143.425781 75.953125 145.941406 74.378906 C 148.453125 72.804688 151.046875 71.375 153.71875 70.09375 C 156.394531 68.8125 159.132812 67.6875 161.933594 66.714844 C 164.734375 65.742188 167.582031 64.929688 170.476562 64.28125 C 173.371094 63.632812 176.289062 63.144531 179.238281 62.828125 C 182.1875 62.507812 185.144531 62.355469 188.109375 62.367188 C 191.074219 62.382812 194.03125 62.5625 196.976562 62.914062 C 199.917969 63.261719 202.835938 63.773438 205.722656 64.453125 C 207.585938 64.894531 209.433594 65.402344 211.261719 65.976562 C 213.085938 66.550781 214.890625 67.195312 216.671875 67.902344 C 218.453125 68.609375 220.203125 69.382812 221.925781 70.21875 C 223.648438 71.058594 225.339844 71.957031 226.996094 72.917969 C 228.652344 73.878906 230.273438 74.902344 231.855469 75.980469 C 233.4375 77.0625 234.976562 78.199219 236.476562 79.390625 C 237.972656 80.585938 239.425781 81.832031 240.832031 83.132812 C 242.242188 84.433594 243.597656 85.785156 244.90625 87.183594 C 246.210938 88.585938 247.464844 90.03125 248.667969 91.523438 C 249.867188 93.015625 251.011719 94.550781 252.101562 96.128906 C 253.191406 97.703125 254.21875 99.320312 255.1875 100.972656 C 256.15625 102.625 257.066406 104.308594 257.910156 106.027344 C 258.757812 107.746094 259.539062 109.496094 260.253906 111.273438 C 260.972656 113.046875 261.625 114.847656 262.207031 116.671875 C 262.792969 118.496094 263.308594 120.339844 263.757812 122.203125 C 264.207031 124.066406 264.585938 125.941406 264.898438 127.832031 C 265.210938 129.722656 265.453125 131.621094 265.621094 133.53125 C 265.792969 135.4375 265.894531 137.351562 265.925781 139.265625 C 265.957031 141.179688 265.917969 143.09375 265.808594 145.007812 C 265.699219 146.921875 265.519531 148.828125 265.269531 150.726562 C 265.019531 152.625 264.699219 154.511719 264.3125 156.390625 C 263.921875 158.265625 263.464844 160.125 262.941406 161.964844 C 262.414062 163.808594 261.820312 165.628906 261.164062 167.429688 C 260.503906 169.226562 259.777344 171 258.988281 172.746094 C 258.199219 174.488281 257.347656 176.203125 256.429688 177.886719 C 255.515625 179.570312 254.539062 181.214844 253.503906 182.828125 C 252.464844 184.4375 251.371094 186.007812 250.21875 187.539062 C 249.066406 189.070312 247.859375 190.554688 246.597656 192 C 245.335938 193.441406 244.023438 194.832031 242.660156 196.179688 C 241.296875 197.523438 239.882812 198.816406 238.425781 200.058594 C 236.964844 201.300781 235.464844 202.488281 233.917969 203.617188 C 232.371094 204.75 230.785156 205.820312 229.160156 206.835938 C 227.265625 207.929688 225.449219 209.136719 223.710938 210.460938 C 221.96875 211.785156 220.320312 213.210938 218.761719 214.746094 C 217.207031 216.28125 215.75 217.90625 214.402344 219.628906 C 213.050781 221.347656 211.816406 223.144531 210.695312 225.023438 C 209.574219 226.898438 208.574219 228.839844 207.703125 230.84375 C 206.828125 232.847656 206.085938 234.898438 205.472656 236.996094 C 204.859375 239.097656 204.382812 241.226562 204.042969 243.386719 C 203.703125 245.542969 203.5 247.71875 203.4375 249.902344 C 203.441406 250.421875 203.414062 250.941406 203.367188 251.457031 C 203.316406 251.976562 203.242188 252.488281 203.140625 253 C 203.039062 253.507812 202.914062 254.011719 202.761719 254.511719 C 202.613281 255.007812 202.4375 255.496094 202.234375 255.976562 C 202.035156 256.457031 201.8125 256.925781 201.566406 257.382812 C 201.320312 257.839844 201.050781 258.285156 200.761719 258.714844 C 200.46875 259.144531 200.160156 259.5625 199.828125 259.960938 C 199.496094 260.359375 199.144531 260.742188 198.773438 261.109375 C 198.402344 261.472656 198.015625 261.816406 197.609375 262.144531 C 197.207031 262.46875 196.785156 262.777344 196.351562 263.058594 C 195.914062 263.34375 195.46875 263.605469 195.007812 263.847656 C 194.546875 264.085938 194.074219 264.300781 193.589844 264.496094 C 193.109375 264.6875 192.617188 264.855469 192.117188 265 C 191.617188 265.140625 191.113281 265.261719 190.601562 265.355469 C 190.089844 265.449219 189.574219 265.515625 189.058594 265.558594 C 188.539062 265.597656 188.019531 265.617188 187.5 265.605469 Z M 187.5 265.605469 " fill-opacity="1" fill-rule="nonzero"/><path fill="#fdd200" d="M 203.144531 296.894531 C 203.144531 297.921875 203.042969 298.9375 202.84375 299.945312 C 202.644531 300.953125 202.347656 301.933594 201.953125 302.882812 C 201.558594 303.832031 201.078125 304.730469 200.507812 305.585938 C 199.9375 306.441406 199.289062 307.230469 198.5625 307.957031 C 197.835938 308.683594 197.046875 309.332031 196.191406 309.902344 C 195.335938 310.472656 194.4375 310.953125 193.488281 311.347656 C 192.539062 311.742188 191.558594 312.039062 190.550781 312.238281 C 189.542969 312.4375 188.527344 312.539062 187.5 312.539062 C 186.472656 312.539062 185.457031 312.4375 184.449219 312.238281 C 183.441406 312.039062 182.460938 311.742188 181.511719 311.347656 C 180.5625 310.953125 179.664062 310.472656 178.808594 309.902344 C 177.953125 309.332031 177.164062 308.683594 176.4375 307.957031 C 175.710938 307.230469 175.0625 306.441406 174.492188 305.585938 C 173.921875 304.730469 173.4375 303.832031 173.046875 302.882812 C 172.652344 301.933594 172.355469 300.953125 172.15625 299.945312 C 171.957031 298.9375 171.855469 297.921875 171.855469 296.894531 C 171.855469 295.867188 171.957031 294.851562 172.15625 293.84375 C 172.355469 292.835938 172.652344 291.855469 173.046875 290.90625 C 173.4375 289.957031 173.921875 289.058594 174.492188 288.203125 C 175.0625 287.347656 175.710938 286.558594 176.4375 285.832031 C 177.164062 285.105469 177.953125 284.457031 178.808594 283.886719 C 179.664062 283.316406 180.5625 282.832031 181.511719 282.441406 C 182.460938 282.046875 183.441406 281.75 184.449219 281.550781 C 185.457031 281.351562 186.472656 281.25 187.5 281.25 C 188.527344 281.25 189.542969 281.351562 190.550781 281.550781 C 191.558594 281.75 192.539062 282.046875 193.488281 282.441406 C 194.4375 282.832031 195.335938 283.316406 196.191406 283.886719 C 197.046875 284.457031 197.835938 285.105469 198.5625 285.832031 C 199.289062 286.558594 199.9375 287.347656 200.507812 288.203125 C 201.078125 289.058594 201.558594 289.957031 201.953125 290.90625 C 202.347656 291.855469 202.644531 292.835938 202.84375 293.84375 C 203.042969 294.851562 203.144531 295.867188 203.144531 296.894531 Z M 203.144531 296.894531 " fill-opacity="1" fill-rule="nonzero"/></svg>