<svg xmlns="http://www.w3.org/2000/svg" xmlns:xlink="http://www.w3.org/1999/xlink" width="500" zoomAndPan="magnify" viewBox="0 0 375 374.999991" height="500" preserveAspectRatio="xMidYMid meet" version="1.0"><path fill="#fdd200" d="M 345.492188 58.226562 L 274.46875 58.226562 L 274.46875 11.261719 C 274.46875 10.394531 274.382812 9.535156 274.214844 8.683594 C 274.042969 7.832031 273.792969 7.003906 273.460938 6.203125 C 273.128906 5.402344 272.722656 4.640625 272.242188 3.917969 C 271.757812 3.195312 271.210938 2.527344 270.597656 1.914062 C 269.984375 1.300781 269.316406 0.753906 268.59375 0.269531 C 267.871094 -0.210938 267.109375 -0.617188 266.308594 -0.949219 C 265.507812 -1.28125 264.679688 -1.535156 263.828125 -1.703125 C 262.976562 -1.871094 262.117188 -1.957031 261.25 -1.957031 L 113.742188 -1.957031 C 112.875 -1.957031 112.015625 -1.871094 111.164062 -1.703125 C 110.3125 -1.535156 109.484375 -1.28125 108.683594 -0.949219 C 107.882812 -0.617188 107.121094 -0.210938 106.398438 0.269531 C 105.675781 0.753906 105.007812 1.300781 104.394531 1.914062 C 103.78125 2.527344 103.234375 3.195312 102.75 3.917969 C 102.269531 4.640625 101.863281 5.402344 101.53125 6.203125 C 101.199219 7.003906 100.945312 7.832031 100.777344 8.683594 C 100.609375 9.535156 100.523438 10.394531 100.523438 11.261719 L 100.523438 58.226562 L 29.5 58.226562 C 28.632812 58.226562 27.773438 58.3125 26.921875 58.480469 C 26.070312 58.652344 25.246094 58.902344 24.441406 59.234375 C 23.640625 59.566406 22.878906 59.972656 22.15625 60.453125 C 21.4375 60.9375 20.769531 61.484375 20.15625 62.097656 C 19.542969 62.710938 18.992188 63.378906 18.511719 64.101562 C 18.027344 64.824219 17.621094 65.585938 17.289062 66.386719 C 16.957031 67.1875 16.707031 68.015625 16.539062 68.867188 C 16.367188 69.71875 16.285156 70.578125 16.285156 71.445312 C 16.285156 72.3125 16.367188 73.171875 16.539062 74.023438 C 16.707031 74.875 16.957031 75.703125 17.289062 76.503906 C 17.621094 77.304688 18.027344 78.066406 18.511719 78.789062 C 18.992188 79.511719 19.542969 80.175781 20.15625 80.792969 C 20.769531 81.40625 21.4375 81.953125 22.15625 82.433594 C 22.878906 82.917969 23.640625 83.324219 24.441406 83.65625 C 25.246094 83.988281 26.070312 84.238281 26.921875 84.410156 C 27.773438 84.578125 28.632812 84.664062 29.5 84.664062 L 46.507812 84.664062 L 46.507812 328.484375 C 46.511719 330.066406 46.589844 331.644531 46.75 333.21875 C 46.90625 334.792969 47.140625 336.359375 47.453125 337.910156 C 47.761719 339.460938 48.148438 340.992188 48.613281 342.507812 C 49.074219 344.019531 49.609375 345.507812 50.214844 346.96875 C 50.824219 348.429688 51.5 349.859375 52.25 351.253906 C 52.996094 352.648438 53.808594 354.003906 54.691406 355.320312 C 55.570312 356.632812 56.515625 357.902344 57.519531 359.125 C 58.523438 360.347656 59.589844 361.515625 60.707031 362.632812 C 61.828125 363.753906 63 364.8125 64.222656 365.816406 C 65.449219 366.820312 66.71875 367.761719 68.035156 368.636719 C 69.351562 369.515625 70.707031 370.328125 72.105469 371.074219 C 73.5 371.820312 74.929688 372.492188 76.390625 373.097656 C 77.855469 373.703125 79.34375 374.234375 80.855469 374.695312 C 82.371094 375.152344 83.90625 375.535156 85.457031 375.84375 C 87.007812 376.152344 88.574219 376.386719 90.148438 376.539062 C 91.722656 376.695312 93.300781 376.773438 94.882812 376.773438 L 280.8125 376.773438 C 282.378906 376.75 283.945312 376.652344 285.5 376.476562 C 287.058594 376.300781 288.605469 376.050781 290.140625 375.726562 C 291.671875 375.402344 293.1875 375.003906 294.683594 374.53125 C 296.179688 374.058594 297.648438 373.515625 299.089844 372.898438 C 300.53125 372.285156 301.941406 371.601562 303.316406 370.847656 C 304.691406 370.09375 306.027344 369.277344 307.324219 368.394531 C 308.621094 367.515625 309.871094 366.570312 311.074219 365.566406 C 312.28125 364.5625 313.433594 363.503906 314.535156 362.386719 C 315.636719 361.273438 316.679688 360.105469 317.667969 358.886719 C 318.65625 357.671875 319.582031 356.410156 320.449219 355.101562 C 321.316406 353.792969 322.113281 352.445312 322.847656 351.0625 C 323.582031 349.675781 324.25 348.257812 324.84375 346.808594 C 325.441406 345.359375 325.96875 343.882812 326.421875 342.382812 C 326.875 340.882812 327.253906 339.363281 327.558594 337.824219 C 327.863281 336.285156 328.09375 334.738281 328.25 333.175781 C 328.402344 331.617188 328.480469 330.050781 328.484375 328.484375 L 328.484375 84.664062 L 345.136719 84.664062 C 346.007812 84.671875 346.867188 84.601562 347.71875 84.441406 C 348.570312 84.28125 349.402344 84.042969 350.207031 83.722656 C 351.011719 83.398438 351.777344 83.003906 352.507812 82.53125 C 353.234375 82.058594 353.910156 81.519531 354.53125 80.914062 C 355.152344 80.308594 355.707031 79.648438 356.199219 78.929688 C 356.691406 78.214844 357.105469 77.460938 357.449219 76.664062 C 357.792969 75.867188 358.054688 75.042969 358.234375 74.195312 C 358.414062 73.347656 358.511719 72.488281 358.523438 71.621094 C 358.535156 70.753906 358.460938 69.894531 358.304688 69.039062 C 358.144531 68.1875 357.90625 67.359375 357.585938 66.550781 C 357.261719 65.746094 356.867188 64.980469 356.394531 64.25 C 355.921875 63.523438 355.382812 62.847656 354.777344 62.226562 C 354.175781 61.605469 353.515625 61.046875 352.800781 60.554688 C 352.085938 60.066406 351.328125 59.648438 350.53125 59.304688 C 349.734375 58.960938 348.914062 58.699219 348.066406 58.515625 C 347.214844 58.335938 346.359375 58.238281 345.492188 58.226562 Z M 126.960938 24.476562 L 248.03125 24.476562 L 248.03125 58.226562 L 126.960938 58.226562 Z M 302.050781 328.484375 C 302.046875 329.199219 302.007812 329.914062 301.933594 330.628906 C 301.863281 331.34375 301.753906 332.050781 301.613281 332.753906 C 301.46875 333.453125 301.292969 334.148438 301.082031 334.832031 C 300.875 335.519531 300.628906 336.191406 300.355469 336.855469 C 300.078125 337.515625 299.769531 338.160156 299.429688 338.792969 C 299.089844 339.421875 298.71875 340.035156 298.320312 340.632812 C 297.921875 341.226562 297.492188 341.800781 297.039062 342.355469 C 296.582031 342.90625 296.097656 343.4375 295.589844 343.941406 C 295.082031 344.449219 294.550781 344.925781 293.996094 345.382812 C 293.441406 345.835938 292.867188 346.261719 292.269531 346.65625 C 291.671875 347.054688 291.058594 347.421875 290.425781 347.757812 C 289.792969 348.097656 289.144531 348.402344 288.484375 348.675781 C 287.820312 348.949219 287.148438 349.191406 286.460938 349.398438 C 285.773438 349.605469 285.082031 349.777344 284.378906 349.917969 C 283.675781 350.058594 282.964844 350.164062 282.253906 350.230469 C 281.539062 350.300781 280.824219 350.335938 280.109375 350.335938 L 94.53125 350.335938 C 93.824219 350.324219 93.117188 350.28125 92.410156 350.199219 C 91.707031 350.121094 91.007812 350.007812 90.3125 349.859375 C 89.617188 349.710938 88.933594 349.53125 88.257812 349.316406 C 87.582031 349.101562 86.917969 348.855469 86.265625 348.574219 C 85.609375 348.296875 84.972656 347.988281 84.351562 347.648438 C 83.730469 347.304688 83.125 346.9375 82.539062 346.539062 C 81.953125 346.136719 81.386719 345.710938 80.839844 345.257812 C 80.296875 344.804688 79.773438 344.324219 79.273438 343.820312 C 78.777344 343.316406 78.304688 342.785156 77.855469 342.234375 C 77.410156 341.6875 76.988281 341.113281 76.597656 340.523438 C 76.203125 339.933594 75.84375 339.324219 75.507812 338.695312 C 75.175781 338.070312 74.875 337.429688 74.605469 336.773438 C 74.332031 336.117188 74.09375 335.449219 73.886719 334.769531 C 73.683594 334.09375 73.511719 333.40625 73.371094 332.710938 C 73.230469 332.015625 73.125 331.3125 73.054688 330.605469 C 72.984375 329.902344 72.945312 329.195312 72.941406 328.484375 L 72.941406 84.664062 L 302.050781 84.664062 Z M 302.050781 328.484375 " fill-opacity="1" fill-rule="nonzero"/><path fill="#fdd200" d="M 152.25 133.480469 C 151.382812 133.480469 150.523438 133.566406 149.671875 133.734375 C 148.820312 133.902344 147.992188 134.152344 147.191406 134.484375 C 146.390625 134.816406 145.628906 135.226562 144.90625 135.707031 C 144.183594 136.191406 143.515625 136.738281 142.902344 137.351562 C 142.289062 137.964844 141.742188 138.632812 141.257812 139.355469 C 140.777344 140.074219 140.371094 140.835938 140.039062 141.640625 C 139.707031 142.441406 139.453125 143.269531 139.285156 144.117188 C 139.117188 144.96875 139.03125 145.828125 139.03125 146.699219 L 139.03125 288.480469 C 139.03125 289.347656 139.117188 290.207031 139.285156 291.058594 C 139.453125 291.910156 139.707031 292.734375 140.039062 293.535156 C 140.371094 294.339844 140.777344 295.101562 141.257812 295.820312 C 141.742188 296.542969 142.289062 297.210938 142.902344 297.824219 C 143.515625 298.4375 144.183594 298.988281 144.90625 299.46875 C 145.628906 299.949219 146.390625 300.359375 147.191406 300.691406 C 147.992188 301.023438 148.820312 301.273438 149.671875 301.441406 C 150.523438 301.613281 151.382812 301.695312 152.25 301.695312 C 153.117188 301.695312 153.976562 301.613281 154.828125 301.441406 C 155.679688 301.273438 156.503906 301.023438 157.308594 300.691406 C 158.109375 300.359375 158.871094 299.949219 159.59375 299.46875 C 160.3125 298.988281 160.980469 298.4375 161.59375 297.824219 C 162.207031 297.210938 162.757812 296.542969 163.238281 295.820312 C 163.722656 295.101562 164.128906 294.339844 164.460938 293.535156 C 164.792969 292.734375 165.042969 291.910156 165.210938 291.058594 C 165.382812 290.207031 165.464844 289.347656 165.464844 288.480469 L 165.464844 146.699219 C 165.464844 145.828125 165.382812 144.96875 165.210938 144.117188 C 165.042969 143.269531 164.792969 142.441406 164.460938 141.640625 C 164.128906 140.835938 163.722656 140.074219 163.238281 139.355469 C 162.757812 138.632812 162.207031 137.964844 161.59375 137.351562 C 160.980469 136.738281 160.3125 136.191406 159.59375 135.707031 C 158.871094 135.226562 158.109375 134.816406 157.308594 134.484375 C 156.503906 134.152344 155.679688 133.902344 154.828125 133.734375 C 153.976562 133.566406 153.117188 133.480469 152.25 133.480469 Z M 152.25 133.480469 " fill-opacity="1" fill-rule="nonzero"/><path fill="#fdd200" d="M 222.742188 133.480469 C 221.875 133.480469 221.015625 133.566406 220.164062 133.734375 C 219.3125 133.902344 218.488281 134.152344 217.683594 134.484375 C 216.882812 134.816406 216.121094 135.226562 215.398438 135.707031 C 214.679688 136.191406 214.011719 136.738281 213.398438 137.351562 C 212.78125 137.964844 212.234375 138.632812 211.753906 139.355469 C 211.269531 140.074219 210.863281 140.835938 210.53125 141.640625 C 210.199219 142.441406 209.949219 143.269531 209.78125 144.117188 C 209.609375 144.96875 209.527344 145.828125 209.527344 146.699219 L 209.527344 288.480469 C 209.527344 289.347656 209.609375 290.207031 209.78125 291.058594 C 209.949219 291.910156 210.199219 292.734375 210.53125 293.535156 C 210.863281 294.339844 211.269531 295.101562 211.753906 295.820312 C 212.234375 296.542969 212.78125 297.210938 213.398438 297.824219 C 214.011719 298.4375 214.679688 298.988281 215.398438 299.46875 C 216.121094 299.949219 216.882812 300.359375 217.683594 300.691406 C 218.488281 301.023438 219.3125 301.273438 220.164062 301.441406 C 221.015625 301.613281 221.875 301.695312 222.742188 301.695312 C 223.609375 301.695312 224.46875 301.613281 225.320312 301.441406 C 226.171875 301.273438 227 301.023438 227.800781 300.691406 C 228.601562 300.359375 229.363281 299.949219 230.085938 299.46875 C 230.808594 298.988281 231.476562 298.4375 232.089844 297.824219 C 232.703125 297.210938 233.25 296.542969 233.734375 295.820312 C 234.214844 295.101562 234.621094 294.339844 234.953125 293.535156 C 235.285156 292.734375 235.539062 291.910156 235.707031 291.058594 C 235.875 290.207031 235.960938 289.347656 235.960938 288.480469 L 235.960938 146.699219 C 235.960938 145.828125 235.875 144.96875 235.707031 144.117188 C 235.539062 143.269531 235.285156 142.441406 234.953125 141.640625 C 234.621094 140.835938 234.214844 140.074219 233.734375 139.355469 C 233.25 138.632812 232.703125 137.964844 232.089844 137.351562 C 231.476562 136.738281 230.808594 136.191406 230.085938 135.707031 C 229.363281 135.226562 228.601562 134.816406 227.800781 134.484375 C 227 134.152344 226.171875 133.902344 225.320312 133.734375 C 224.46875 133.566406 223.609375 133.480469 222.742188 133.480469 Z M 222.742188 133.480469 " fill-opacity="1" fill-rule="nonzero"/></svg>