<svg xmlns="http://www.w3.org/2000/svg" xmlns:xlink="http://www.w3.org/1999/xlink" width="500" zoomAndPan="magnify" viewBox="0 0 375 374.999991" height="500" preserveAspectRatio="xMidYMid meet" version="1.0"><defs><clipPath id="44d95ad0dd"><path d="M 9 0 L 365.90625 0 L 365.90625 375 L 9 375 Z M 9 0 " clip-rule="nonzero"/></clipPath></defs><g clip-path="url(#44d95ad0dd)"><path fill="#fdd200" d="M 291.425781 187.5 C 291.425781 244.800781 244.808594 291.421875 187.507812 291.421875 C 130.207031 291.421875 83.585938 244.800781 83.585938 187.5 C 83.585938 130.199219 130.207031 83.574219 187.515625 83.574219 C 244.824219 83.574219 291.425781 130.199219 291.425781 187.5 Z M 334.261719 191.648438 L 365.859375 245.4375 L 308.699219 270.390625 C 308.03125 270.683594 307.410156 271.0625 306.839844 271.523438 C 306.273438 271.984375 305.773438 272.511719 305.34375 273.101562 C 304.914062 273.695312 304.570312 274.335938 304.3125 275.019531 C 304.054688 275.703125 303.886719 276.410156 303.816406 277.140625 L 297.734375 339.226562 L 236.820312 325.867188 C 236.105469 325.707031 235.386719 325.640625 234.65625 325.671875 C 233.925781 325.703125 233.210938 325.832031 232.515625 326.054688 C 231.820312 326.273438 231.164062 326.585938 230.550781 326.980469 C 229.9375 327.378906 229.386719 327.851562 228.898438 328.394531 L 187.507812 375 L 146.078125 328.394531 C 145.300781 327.519531 144.378906 326.839844 143.308594 326.359375 C 142.242188 325.882812 141.121094 325.640625 139.949219 325.640625 C 139.359375 325.644531 138.773438 325.707031 138.195312 325.828125 L 77.28125 339.1875 L 71.199219 277.101562 C 71.125 276.375 70.960938 275.667969 70.703125 274.984375 C 70.445312 274.296875 70.101562 273.660156 69.671875 273.066406 C 69.242188 272.472656 68.742188 271.945312 68.171875 271.484375 C 67.605469 271.027344 66.984375 270.648438 66.316406 270.351562 L 9.148438 245.445312 L 40.746094 191.65625 C 41.113281 191.023438 41.394531 190.359375 41.582031 189.652344 C 41.773438 188.949219 41.867188 188.234375 41.867188 187.503906 C 41.867188 186.773438 41.773438 186.058594 41.582031 185.355469 C 41.394531 184.648438 41.113281 183.984375 40.746094 183.351562 L 9.148438 129.546875 L 66.316406 104.601562 C 66.984375 104.3125 67.601562 103.9375 68.171875 103.480469 C 68.738281 103.023438 69.238281 102.503906 69.667969 101.914062 C 70.097656 101.324219 70.441406 100.6875 70.699219 100.007812 C 70.960938 99.328125 71.125 98.621094 71.199219 97.898438 L 77.28125 35.804688 L 138.195312 49.164062 C 138.90625 49.320312 139.625 49.378906 140.351562 49.34375 C 141.082031 49.308594 141.789062 49.179688 142.484375 48.953125 C 143.175781 48.726562 143.828125 48.417969 144.4375 48.019531 C 145.046875 47.621094 145.59375 47.148438 146.078125 46.605469 L 187.507812 0 L 228.898438 46.605469 C 229.382812 47.148438 229.929688 47.621094 230.539062 48.019531 C 231.148438 48.417969 231.800781 48.726562 232.496094 48.953125 C 233.1875 49.179688 233.898438 49.308594 234.625 49.34375 C 235.351562 49.378906 236.070312 49.320312 236.78125 49.164062 L 297.699219 35.804688 L 303.78125 97.898438 C 303.851562 98.621094 304.019531 99.328125 304.277344 100.007812 C 304.535156 100.6875 304.882812 101.324219 305.3125 101.914062 C 305.738281 102.503906 306.238281 103.023438 306.808594 103.480469 C 307.375 103.9375 307.996094 104.3125 308.664062 104.601562 L 365.828125 129.546875 L 334.230469 183.335938 C 333.863281 183.96875 333.589844 184.636719 333.398438 185.34375 C 333.210938 186.050781 333.121094 186.765625 333.121094 187.496094 C 333.125 188.226562 333.222656 188.945312 333.414062 189.648438 C 333.609375 190.351562 333.890625 191.019531 334.261719 191.648438 Z M 311.941406 187.5 C 311.941406 118.882812 256.117188 63.058594 187.507812 63.058594 C 118.898438 63.058594 63.066406 118.882812 63.066406 187.5 C 63.066406 256.117188 118.890625 311.933594 187.507812 311.933594 C 256.125 311.933594 311.941406 256.109375 311.941406 187.5 Z M 311.941406 187.5 " fill-opacity="1" fill-rule="nonzero"/></g></svg>