<svg xmlns="http://www.w3.org/2000/svg" xmlns:xlink="http://www.w3.org/1999/xlink" width="500" zoomAndPan="magnify" viewBox="0 0 375 374.999991" height="500" preserveAspectRatio="xMidYMid meet" version="1.0"><defs><clipPath id="903c920108"><path d="M 18.75 0 L 180 0 L 180 374.707031 L 18.75 374.707031 Z M 18.75 0 " clip-rule="nonzero"/></clipPath><clipPath id="836f16a532"><path d="M 137 73 L 356.25 73 L 356.25 301 L 137 301 Z M 137 73 " clip-rule="nonzero"/></clipPath></defs><g clip-path="url(#903c920108)"><path fill="#fdd200" d="M 179.824219 348.082031 C 179.824219 362.933594 167.824219 374.929688 152.972656 374.929688 L 99.269531 374.929688 C 54.800781 374.929688 18.71875 338.851562 18.71875 294.378906 L 18.71875 79.574219 C 18.71875 35.105469 54.800781 -0.976562 99.269531 -0.976562 L 152.972656 -0.976562 C 167.824219 -0.976562 179.824219 11.023438 179.824219 25.875 C 179.824219 40.726562 167.824219 52.722656 152.972656 52.722656 L 99.269531 52.722656 C 84.421875 52.722656 72.421875 64.722656 72.421875 79.574219 L 72.421875 294.378906 C 72.421875 309.230469 84.421875 321.230469 99.269531 321.230469 L 152.972656 321.230469 C 167.824219 321.230469 179.824219 333.226562 179.824219 348.082031 Z M 179.824219 348.082031 " fill-opacity="1" fill-rule="nonzero"/></g><g clip-path="url(#836f16a532)"><path fill="#fdd200" d="M 261.296875 80.746094 L 348.203125 167.65625 C 353.300781 172.75 356.199219 179.757812 356.199219 186.976562 C 356.199219 194.195312 353.300781 201.203125 348.203125 206.296875 L 261.296875 293.203125 C 256.765625 297.734375 250.679688 300.210938 244.308594 300.210938 C 231.078125 300.210938 220.320312 289.453125 220.320312 276.21875 L 220.320312 232.269531 L 160.164062 232.269531 C 147.636719 232.269531 137.519531 222.148438 137.519531 209.625 L 137.519531 164.332031 C 137.519531 151.800781 147.636719 141.683594 160.164062 141.683594 L 220.320312 141.683594 L 220.320312 97.734375 C 220.320312 84.5 231.078125 73.742188 244.308594 73.742188 C 250.679688 73.742188 256.765625 76.289062 261.296875 80.746094 Z M 261.296875 80.746094 " fill-opacity="1" fill-rule="nonzero"/></g></svg>