<svg xmlns="http://www.w3.org/2000/svg" xmlns:xlink="http://www.w3.org/1999/xlink" width="500" zoomAndPan="magnify" viewBox="0 0 375 374.999991" height="500" preserveAspectRatio="xMidYMid meet" version="1.0"><defs><clipPath id="27f15c6846"><path d="M 0 33.515625 L 375 33.515625 L 375 341.765625 L 0 341.765625 Z M 0 33.515625 " clip-rule="nonzero"/></clipPath></defs><g clip-path="url(#27f15c6846)"><path fill="#fdd200" d="M 321.441406 73.679688 L 266.429688 73.679688 L 250.160156 53.460938 C 239.9375 40.789062 224.738281 33.515625 208.445312 33.515625 L 166.554688 33.515625 C 150.285156 33.515625 135.0625 40.789062 124.867188 53.460938 L 108.597656 73.679688 L 53.558594 73.679688 C 24.066406 73.679688 0.0507812 97.699219 0.0507812 127.191406 L 0.0507812 287.972656 C 0.0507812 317.492188 24.066406 341.484375 53.558594 341.484375 L 321.441406 341.484375 C 350.957031 341.484375 374.949219 317.464844 374.949219 287.972656 L 374.949219 127.191406 C 374.949219 97.699219 350.933594 73.679688 321.441406 73.679688 Z M 348.183594 287.972656 C 348.183594 302.71875 336.1875 314.714844 321.441406 314.714844 L 53.558594 314.714844 C 38.8125 314.714844 26.816406 302.71875 26.816406 287.972656 L 26.816406 127.191406 C 26.816406 112.445312 38.8125 100.449219 53.558594 100.449219 L 114.96875 100.449219 C 119.019531 100.449219 122.84375 98.597656 125.390625 95.449219 L 145.710938 70.28125 C 150.808594 63.933594 158.40625 60.308594 166.554688 60.308594 L 208.46875 60.308594 C 216.617188 60.308594 224.214844 63.933594 229.3125 70.28125 L 249.609375 95.472656 C 252.15625 98.625 255.980469 100.472656 260.03125 100.472656 L 321.441406 100.472656 C 336.1875 100.472656 348.183594 112.46875 348.183594 127.214844 Z M 187.5 113.871094 C 135.8125 113.871094 93.773438 155.910156 93.773438 207.59375 C 93.773438 259.28125 135.8125 301.320312 187.5 301.320312 C 239.1875 301.320312 281.226562 259.28125 281.226562 207.59375 C 281.226562 155.910156 239.1875 113.871094 187.5 113.871094 Z M 187.5 274.527344 C 150.585938 274.527344 120.542969 244.484375 120.542969 207.570312 C 120.542969 170.65625 150.585938 140.636719 187.5 140.636719 C 224.414062 140.636719 254.457031 170.679688 254.457031 207.59375 C 254.457031 244.511719 224.414062 274.527344 187.5 274.527344 Z M 187.5 274.527344 " fill-opacity="1" fill-rule="nonzero"/></g></svg>